<svg width="180" height="180" viewBox="0 0 180 180" fill="none" xmlns="http://www.w3.org/2000/svg">
<g filter="url(#filter0_d_3_35)">
<path d="M86.4101 14.4997C87.97 11.6753 92.03 11.6753 93.5899 14.4997C94.9895 17.0337 98.5031 17.3593 100.344 15.1256C102.397 12.6359 106.387 13.3819 107.402 16.4449C108.312 19.1929 111.706 20.1586 113.927 18.3012C116.401 16.2311 120.187 17.6977 120.621 20.8949C121.011 23.7634 124.169 25.3362 126.694 23.9185C129.507 22.3383 132.958 24.4756 132.798 27.6982C132.654 30.5894 135.47 32.7158 138.211 31.7861C141.267 30.7498 144.267 33.4849 143.517 36.6231C142.844 39.4387 145.221 42.0463 148.087 41.6361C151.281 41.1789 153.728 44.4188 152.414 47.3657C151.235 50.0097 153.092 53.0097 155.985 53.1331C159.209 53.2705 161.018 56.9048 159.185 59.5602C157.541 61.9425 158.815 65.2328 161.635 65.8855C164.779 66.613 165.89 70.5178 163.6 72.7912C161.546 74.8309 162.195 78.2993 164.847 79.4591C167.803 80.7518 168.178 84.7943 165.51 86.6081C163.115 88.236 163.115 91.7639 165.51 93.3918C168.178 95.2056 167.803 99.2482 164.847 100.541C162.195 101.701 161.546 105.169 163.6 107.209C165.89 109.482 164.779 113.387 161.635 114.115C158.815 114.767 157.541 118.058 159.185 120.44C161.018 123.095 159.209 126.729 155.985 126.867C153.092 126.99 151.235 129.99 152.414 132.634C153.728 135.581 151.281 138.821 148.087 138.364C145.221 137.954 142.844 140.561 143.517 143.377C144.267 146.515 141.267 149.25 138.211 148.214C135.47 147.284 132.654 149.41 132.798 152.302C132.958 155.524 129.507 157.662 126.694 156.081C124.169 154.664 121.011 156.236 120.621 159.105C120.187 162.302 116.401 163.769 113.927 161.699C111.706 159.841 108.312 160.807 107.402 163.555C106.387 166.618 102.397 167.364 100.344 164.875C98.5031 162.641 94.9895 162.966 93.5899 165.5C92.03 168.325 87.97 168.325 86.4101 165.5C85.0105 162.966 81.497 162.641 79.6557 164.875C77.6033 167.364 73.6125 166.618 72.5981 163.555C71.6879 160.807 68.2941 159.841 66.0737 161.699C63.5987 163.769 59.813 162.302 59.3786 159.105C58.989 156.236 55.8304 154.664 53.3065 156.081C50.4933 157.662 47.0414 155.524 47.202 152.302C47.3461 149.41 44.5302 147.284 41.7888 148.214C38.7331 149.25 35.7329 146.515 36.4828 143.377C37.1556 140.561 34.7786 137.954 31.9129 138.364C28.7189 138.821 26.2722 135.581 27.5861 132.634C28.7648 129.99 26.9073 126.99 24.0151 126.867C20.7915 126.729 18.9818 123.095 20.8147 120.44C22.4593 118.058 21.1846 114.767 18.3643 114.115C15.2208 113.387 14.1098 109.482 16.3995 107.209C18.4538 105.169 17.8054 101.701 15.1531 100.541C12.1967 99.2482 11.8221 95.2056 14.4906 93.3918C16.8846 91.7639 16.8846 88.236 14.4906 86.6081C11.8221 84.7943 12.1967 80.7518 15.1531 79.4591C17.8054 78.2993 18.4538 74.8308 16.3995 72.7912C14.1098 70.5178 15.2208 66.613 18.3643 65.8855C21.1846 65.2328 22.4593 61.9425 20.8147 59.5602C18.9818 56.9048 20.7915 53.2705 24.0151 53.1331C26.9073 53.0097 28.7648 50.0097 27.5861 47.3657C26.2722 44.4188 28.7189 41.1789 31.9129 41.6361C34.7786 42.0463 37.1556 39.4387 36.4828 36.6231C35.7329 33.4849 38.7331 30.7498 41.7888 31.7861C44.5302 32.7158 47.3461 30.5894 47.202 27.6982C47.0414 24.4756 50.4933 22.3383 53.3065 23.9185C55.8304 25.3362 58.989 23.7634 59.3786 20.8949C59.813 17.6977 63.5987 16.2311 66.0737 18.3013C68.2941 20.1586 71.6879 19.1929 72.5981 16.4449C73.6125 13.3819 77.6033 12.6359 79.6557 15.1256C81.497 17.3593 85.0105 17.0337 86.4101 14.4997Z" fill="#EFC4D8"/>
</g>
<path d="M90.3779 157.263C127.317 157.263 157.263 127.317 157.263 90.3779C157.263 53.4384 127.317 23.4931 90.3779 23.4931C53.4384 23.4931 23.4931 53.4384 23.4931 90.3779C23.4931 127.317 53.4384 157.263 90.3779 157.263Z" fill="#EFC4D8" stroke="#76554C" stroke-width="5"/>
<path d="M90 148.571C122.348 148.571 148.571 122.348 148.571 90C148.571 57.6519 122.348 31.4286 90 31.4286C57.6519 31.4286 31.4286 57.6519 31.4286 90C31.4286 122.348 57.6519 148.571 90 148.571Z" fill="#EFC4D8" stroke="#76554C" stroke-width="2" stroke-linecap="round" stroke-dasharray="1 5"/>
<path d="M39.7419 100.566C39.7419 99.4168 40.0157 97.3914 40.5633 94.4892C41.1108 91.5871 41.4454 89.7529 41.5671 88.9873L39.9549 85.7526C42.5304 84.3016 44.7207 83.576 46.5256 83.576C47.4179 83.576 48.0871 83.8784 48.5333 84.483C50.2165 83.8988 51.768 83.6063 53.1875 83.6063C55.8239 83.6063 57.8722 84.4626 59.3324 86.1759C60.7925 87.8688 61.5226 89.9849 61.5226 92.5242C61.5226 95.87 60.2855 98.9429 57.8113 101.745C56.6148 103.095 55.033 104.183 53.0658 105.009C51.119 105.835 49.0302 106.249 46.7994 106.249C44.5685 106.249 42.8347 105.765 41.5976 104.798C40.3604 103.81 39.7419 102.4 39.7419 100.566ZM46.191 101.714C46.6169 101.795 47.0934 101.835 47.6207 101.835C49.8312 101.835 51.555 101.049 52.7921 99.4772C54.0291 97.8849 54.6477 95.9305 54.6477 93.6125C54.6477 91.7383 54.2218 90.2471 53.37 89.1384C52.5183 88.0297 51.2914 87.4758 49.6893 87.4758C49.4459 87.4758 49.0403 87.5158 48.4725 87.5967C48.3305 88.6245 47.9553 90.922 47.3469 94.4892C46.7588 98.036 46.3735 100.445 46.191 101.714Z" fill="#76554C"/>
<path d="M77.8997 89.6524C79.0353 89.6524 80.0088 90.1058 80.82 91.0127C81.6514 91.9196 82.0672 93.24 82.0672 94.9729C82.0672 96.6862 81.763 98.2779 81.1546 99.7493C80.5462 101.2 79.7452 102.389 78.7514 103.317C77.7577 104.244 76.6322 104.969 75.3748 105.493C74.1175 105.997 72.8297 106.249 71.5115 106.249C68.8548 106.249 66.7558 105.523 65.2145 104.072C63.6733 102.621 62.9027 100.696 62.9027 98.2983C62.9027 95.0538 63.947 92.4237 66.0359 90.4081C68.145 88.3729 70.822 87.3549 74.0668 87.3549C74.7968 87.3549 75.5269 87.4357 76.2569 87.5967C76.48 88.2618 76.6017 89.0175 76.6221 89.864C77.0479 89.7227 77.4738 89.6524 77.8997 89.6524ZM74.158 93.8544C74.158 93.2898 74.2899 92.655 74.5535 91.9499C74.8374 91.2448 75.2835 90.6802 75.8919 90.257C73.215 90.8215 71.3695 91.8992 70.3555 93.4916C69.4835 94.8618 69.0474 96.2728 69.0474 97.7239C69.0474 99.175 69.3415 100.344 69.9296 101.231C70.538 102.097 71.3087 102.531 72.2416 102.531C74.3101 102.531 75.7702 101.191 76.6221 98.5099C74.9793 97.5025 74.158 95.9501 74.158 93.8544Z" fill="#76554C"/>
<path d="M84.6485 98.2983C84.6485 95.0734 85.7632 92.4434 87.9942 90.4081C90.2252 88.3729 93.0336 87.3549 96.4209 87.3549C98.1645 87.3549 99.5437 87.6874 100.558 88.3525C101.571 88.9971 102.079 89.8133 102.079 90.8011C102.079 91.7889 101.734 92.5447 101.045 93.0684C100.375 93.5921 99.6352 93.8544 98.8235 93.8544C98.033 93.8544 97.3029 93.6428 96.6333 93.2196C95.9849 92.7963 95.4778 92.1819 95.1127 91.3755C93.8347 91.8992 92.8213 92.8266 92.0708 94.1567C91.3407 95.4868 90.9757 96.817 90.9757 98.1471C90.9757 99.4773 91.2394 100.556 91.7662 101.382C92.2937 102.208 92.983 102.621 93.8347 102.621C94.6865 102.621 95.3765 102.339 95.9032 101.775C96.4512 101.21 96.7248 100.374 96.7248 99.2656C99.6858 99.2656 101.166 99.9609 101.166 101.352C101.166 102.54 100.416 103.659 98.9149 104.707C97.414 105.735 95.4369 106.249 92.983 106.249C90.529 106.249 88.5217 105.523 86.9603 104.072C85.4186 102.601 84.6485 100.677 84.6485 98.2983Z" fill="#76554C"/>
<path d="M112.747 106.249C109.969 106.249 107.819 105.533 106.298 104.103C104.797 102.672 104.047 100.737 104.047 98.2983C104.047 95.0538 105.162 92.4237 107.393 90.4081C109.644 88.3729 112.463 87.3549 115.85 87.3549C117.736 87.3549 119.166 87.7781 120.139 88.6245C121.112 89.4506 121.599 90.5495 121.599 91.9197C121.599 93.7939 120.676 95.3561 118.831 96.6054C117.006 97.835 114.177 98.4592 110.344 98.4797C110.405 99.7697 110.699 100.787 111.226 101.533C111.753 102.258 112.412 102.621 113.203 102.621C113.994 102.621 114.673 102.359 115.242 101.835C115.83 101.311 116.124 100.454 116.124 99.2656C119.085 99.2656 120.564 99.9609 120.564 101.352C120.564 102.54 119.834 103.659 118.374 104.707C116.914 105.735 115.038 106.249 112.747 106.249ZM115.332 90.8918C114.298 90.8918 113.345 91.4057 112.473 92.4336C111.622 93.4614 111.003 94.6706 110.617 96.0612C112.646 95.9002 114.166 95.4468 115.18 94.7009C116.215 93.9353 116.732 93.1289 116.732 92.2824C116.732 91.8796 116.6 91.5471 116.337 91.2848C116.093 91.0226 115.759 90.8918 115.332 90.8918Z" fill="#76554C"/>
<path d="M134.048 91.3755C133.298 91.5969 132.699 91.9196 132.253 92.3429C131.806 92.7457 131.411 93.3307 131.067 94.0962C134.494 94.6003 136.907 95.3259 138.307 96.2728C139.706 97.2198 140.405 98.5703 140.405 100.324C140.405 101.432 140.091 102.4 139.462 103.226C138.833 104.032 138.043 104.647 137.09 105.07C135.224 105.856 133.388 106.249 131.583 106.249C126.453 106.249 123.888 105.151 123.888 102.954C123.888 101.845 124.384 100.737 125.378 99.6284C125.885 100.334 126.645 100.938 127.66 101.442C128.693 101.946 129.698 102.198 130.671 102.198C132.354 102.198 133.369 101.463 133.713 99.9912C130.63 99.6284 128.399 98.9429 127.021 97.9355C125.642 96.9281 124.952 95.5072 124.952 93.673C124.952 92.222 125.429 91.0029 126.382 90.0151C127.355 89.0274 128.552 88.3426 129.971 87.9595C131.411 87.5566 133.023 87.3549 134.808 87.3549C136.613 87.3549 138.094 87.6972 139.249 88.3827C140.426 89.0478 141.014 89.864 141.014 90.8314C141.014 91.7987 140.669 92.5447 139.979 93.0684C139.31 93.5921 138.57 93.8544 137.759 93.8544C136.968 93.8544 136.238 93.6428 135.569 93.2196C134.919 92.7963 134.413 92.1819 134.048 91.3755Z" fill="#76554C"/>
<path d="M57.9737 78.1239C57.9737 77.9294 58.0151 77.7264 58.0981 77.5149C58.181 77.295 58.2557 77.1088 58.322 76.9566C58.38 76.8381 58.4713 76.6563 58.5957 76.411C58.7201 76.1572 58.8612 75.8739 59.0187 75.5608C59.1763 75.2479 59.3422 74.918 59.5164 74.5711C59.6989 74.2243 59.8689 73.8944 60.0265 73.5814C60.1841 73.2684 60.3251 72.9893 60.4495 72.744C60.5823 72.4902 60.6776 72.3041 60.7357 72.1857C60.744 72.1773 60.7605 72.1476 60.7855 72.0969C60.8187 72.0462 60.8518 71.9954 60.885 71.9447C60.9264 71.8939 60.9638 71.8473 60.9969 71.8051C61.0301 71.7543 61.0509 71.7204 61.0591 71.7036C61.0675 71.6866 61.0633 71.6697 61.0468 71.6528C61.0301 71.6359 61.0218 71.6189 61.0218 71.602C60.6652 71.6443 60.2919 71.6993 59.9021 71.767C59.5206 71.8346 59.139 71.915 58.7575 72.0081C58.3842 72.0926 58.0234 72.1941 57.6751 72.3126C57.3267 72.4225 57.0115 72.5494 56.7295 72.6932C56.6382 72.6932 56.5553 72.6763 56.4807 72.6425C56.406 72.6087 56.3687 72.5409 56.3687 72.4394V72.4014C56.3687 72.393 56.3728 72.3803 56.3811 72.3633C56.3977 72.321 56.4226 72.2576 56.4557 72.173C56.4972 72.0799 56.5262 72.0292 56.5429 72.0208L57.6751 71.5259L65.252 69.5592C65.3432 69.796 65.3349 69.9863 65.2271 70.1302C65.1276 70.2655 64.9658 70.3797 64.7419 70.4727C64.518 70.5573 64.2567 70.6335 63.9581 70.7011C63.6677 70.7604 63.3733 70.8365 63.0747 70.9295C62.7844 71.0142 62.5148 71.1326 62.266 71.2848C62.0171 71.4286 61.8305 71.6232 61.7061 71.8685C61.167 72.9597 60.6113 74.0467 60.0389 75.1294C59.4749 76.2122 58.9565 77.3161 58.4837 78.4412C58.4754 78.4412 58.4589 78.4412 58.434 78.4412C58.4174 78.4496 58.4049 78.4539 58.3967 78.4539C58.2888 78.4539 58.1893 78.4285 58.0981 78.3777C58.0151 78.327 57.9737 78.2423 57.9737 78.1239Z" fill="#76554C"/>
<path d="M62.7015 77.7813C62.5605 77.4599 62.4983 77.1469 62.5148 76.8424C62.5314 76.5294 62.5978 76.2376 62.7139 75.9669C62.8384 75.6877 62.9959 75.4382 63.1867 75.2182C63.3858 74.9898 63.5973 74.7953 63.8212 74.6346C64.0452 74.4654 64.2691 74.3385 64.4931 74.254C64.7253 74.1693 64.9285 74.1355 65.1027 74.1525C65.2769 74.1609 65.4138 74.2243 65.5133 74.3428C65.6128 74.4612 65.646 74.643 65.6128 74.8883C65.6128 75.2182 65.5091 75.5059 65.3018 75.7512C65.1027 75.9965 64.8788 76.2164 64.6299 76.411C64.3894 76.6055 64.1654 76.7832 63.9581 76.9439C63.759 77.0962 63.6595 77.24 63.6595 77.3753C63.6595 77.4514 63.7009 77.5107 63.7839 77.5529C63.8751 77.5953 63.9788 77.6291 64.095 77.6544C64.211 77.6714 64.3272 77.6841 64.4433 77.6925C64.5594 77.701 64.6424 77.7095 64.6922 77.7179C65.4718 77.5487 66.0565 77.4472 66.4464 77.4134C66.8363 77.3711 67.0809 77.3753 67.1804 77.426C67.28 77.4684 67.2593 77.5402 67.1182 77.6418C66.9855 77.7348 66.7782 77.8363 66.4962 77.9463C66.2142 78.0478 65.8865 78.1408 65.5133 78.2255C65.14 78.3101 64.7709 78.3608 64.406 78.3777C64.041 78.3862 63.7009 78.3481 63.3858 78.2635C63.0788 78.1789 62.8508 78.0182 62.7015 77.7813ZM64.8788 74.8883C64.7129 74.8883 64.5553 74.9349 64.406 75.0279C64.2567 75.121 64.1198 75.2394 63.9954 75.3832C63.8793 75.5186 63.7797 75.6708 63.6968 75.84C63.6138 76.0008 63.5516 76.153 63.5102 76.2968C63.5268 76.3052 63.5392 76.3095 63.5475 76.3095H63.5848C63.7009 76.3095 63.8336 76.2587 63.983 76.1572C64.1322 76.0557 64.2732 75.933 64.406 75.7892C64.5387 75.637 64.6507 75.4805 64.7419 75.3198C64.8331 75.1591 64.8788 75.0152 64.8788 74.8883Z" fill="#76554C"/>
<path d="M69.6564 77.4641C69.6564 77.2103 69.7061 76.9777 69.8056 76.7663C69.9135 76.5463 70.0296 76.3391 70.154 76.1445C70.2784 75.95 70.3904 75.7554 70.4899 75.5608C70.5977 75.3663 70.6516 75.1591 70.6516 74.9391C70.6516 74.8883 70.6476 74.8292 70.6392 74.7614C70.6392 74.6853 70.6309 74.6135 70.6144 74.5458C70.6061 74.4781 70.5812 74.4231 70.5397 74.3808C70.5065 74.3301 70.4609 74.3047 70.4028 74.3047C70.3945 74.3047 70.378 74.3089 70.3531 74.3174C70.3365 74.3174 70.3282 74.3216 70.3282 74.3301C70.2121 74.4908 70.0711 74.6726 69.9052 74.8756C69.7476 75.0702 69.5775 75.2648 69.395 75.4593C69.2126 75.6539 69.0342 75.84 68.8601 76.0177C68.6859 76.1953 68.5283 76.3433 68.3873 76.4618C68.2878 76.5548 68.1509 76.6817 67.9767 76.8424C67.8108 77.0031 67.6408 77.1639 67.4666 77.3245C67.3007 77.4768 67.1514 77.6122 67.0187 77.7306C66.8943 77.849 66.8238 77.9082 66.8072 77.9082L66.2349 77.4134C66.3096 77.4134 66.3842 77.3965 66.4588 77.3626C66.5252 77.3288 66.5915 77.2908 66.6579 77.2484C67.1556 76.9101 67.6035 76.5209 68.0016 76.0811C68.408 75.6412 68.8061 75.1675 69.196 74.6599C69.2126 74.6346 69.2541 74.5627 69.3204 74.4443C69.395 74.3174 69.4739 74.1778 69.5568 74.0256C69.6397 73.8648 69.7227 73.7083 69.8056 73.5561C69.8886 73.3953 69.9508 73.2684 69.9922 73.1754C70.042 73.0654 70.0711 72.9766 70.0794 72.9089C70.0959 72.8413 70.1084 72.7905 70.1167 72.7567C70.1333 72.7144 70.1581 72.6848 70.1913 72.6678C70.2245 72.6509 70.295 72.6425 70.4028 72.6425C70.4194 72.6425 70.4567 72.6467 70.5148 72.6551C70.5812 72.6636 70.6226 72.6721 70.6392 72.6805C70.7471 72.9089 70.8425 73.1119 70.9254 73.2896C71.0084 73.4672 71.0789 73.6364 71.1369 73.7972C71.1949 73.9494 71.2364 74.1059 71.2613 74.2666C71.2945 74.4273 71.3111 74.605 71.3111 74.7995C71.2033 75.0787 71.0829 75.3663 70.9502 75.6624C70.8175 75.95 70.7056 76.2249 70.6144 76.4871C70.5231 76.7493 70.465 76.9862 70.4402 77.1976C70.4235 77.4092 70.4692 77.5783 70.577 77.7052C70.6931 77.8236 70.8839 77.887 71.1493 77.8955C71.423 77.904 71.8088 77.8321 72.3064 77.6798C72.4391 77.7475 72.4516 77.8321 72.3437 77.9336C72.2359 78.0266 72.07 78.1154 71.846 78.2001C71.6304 78.2847 71.3899 78.3565 71.1244 78.4158C70.8673 78.4665 70.6516 78.4792 70.4775 78.4539C70.3199 78.4539 70.1872 78.4285 70.0794 78.3777C69.9798 78.3185 69.8969 78.2423 69.8305 78.1493C69.7725 78.0563 69.7268 77.9505 69.6936 77.8321C69.6688 77.7137 69.6564 77.591 69.6564 77.4641Z" fill="#76554C"/>
<path d="M72.4184 80.3698C72.4184 80.2514 72.435 80.1541 72.4682 80.078C72.5014 80.0018 72.5843 79.9638 72.717 79.9638H72.804C72.8455 79.9638 72.8745 79.968 72.8912 79.9764C72.8829 80.2387 72.9285 80.4333 73.028 80.5601C73.1276 80.6954 73.2976 80.7632 73.5381 80.7632C73.7455 80.7632 73.9155 80.7462 74.0482 80.7124C74.181 80.687 74.2846 80.6363 74.3592 80.5601C74.4339 80.484 74.4837 80.374 74.5086 80.2302C74.5418 80.0948 74.5583 79.913 74.5583 79.6846C74.5583 79.5493 74.5169 79.4478 74.4339 79.3801C74.3592 79.3124 74.2722 79.2532 74.1726 79.2024C74.0814 79.1517 73.9943 79.1009 73.9114 79.0502C73.8367 78.9994 73.7994 78.9233 73.7994 78.8218C73.7911 78.6696 73.7911 78.5342 73.7994 78.4158C73.6003 78.4412 73.4012 78.4539 73.2022 78.4539C73.0529 78.4539 72.8953 78.4285 72.7294 78.3777C72.5636 78.3185 72.4101 78.2381 72.2691 78.1366C72.1281 78.0351 72.0078 77.9124 71.9083 77.7686C71.817 77.6249 71.7714 77.4641 71.7714 77.2865C71.7714 76.9058 71.8253 76.5379 71.9332 76.1826C72.041 75.8188 72.1903 75.4762 72.381 75.1548C72.5718 74.8334 72.8 74.5373 73.0654 74.2666C73.339 73.9959 73.6335 73.7591 73.9487 73.5561V73.5434C74.0731 73.4672 74.2141 73.3953 74.3717 73.3277C74.5376 73.2515 74.691 73.2093 74.832 73.2008C74.9731 73.1839 75.0891 73.2177 75.1804 73.3023C75.28 73.3784 75.3297 73.5265 75.3297 73.7464C75.3297 73.8479 75.3214 73.9832 75.3048 74.1525C75.2882 74.3131 75.2426 74.4273 75.168 74.495C75.1016 74.5373 75.0146 74.5754 74.9067 74.6092C74.8569 74.6261 74.8072 74.6388 74.7574 74.6472V73.8479C74.5666 73.8733 74.3468 73.9959 74.098 74.2159C73.8492 74.4273 73.6086 74.6896 73.3764 75.0025C73.1524 75.3071 72.9617 75.6412 72.804 76.005C72.6465 76.3603 72.5677 76.6901 72.5677 76.9946C72.5677 77.24 72.6299 77.4134 72.7543 77.5149C72.8787 77.6079 73.0571 77.6544 73.2893 77.6544C73.5381 77.6544 73.7787 77.6249 74.0109 77.5656C74.2515 77.498 74.4879 77.4303 74.7201 77.3626C74.9606 77.2865 75.197 77.2188 75.4292 77.1596C75.6698 77.0919 75.9144 77.0581 76.1633 77.0581C76.1633 77.1766 76.1467 77.2781 76.1135 77.3626C76.0803 77.4387 76.0306 77.5234 75.9642 77.6164C75.5329 77.8279 75.0892 78.0224 74.633 78.2001C74.5418 78.2339 74.4547 78.2635 74.3717 78.2889C74.3717 78.4327 74.3427 78.6103 74.2846 78.8218C74.3759 78.8895 74.4712 78.9487 74.5708 78.9994C74.6703 79.0586 74.7574 79.1179 74.832 79.177C74.915 79.2363 74.9814 79.3039 75.0311 79.3801C75.0892 79.4562 75.1182 79.5493 75.1182 79.6592C75.1182 80.2514 75.0021 80.6743 74.7698 80.9281C74.5376 81.1819 74.1478 81.3087 73.6003 81.3087C73.2852 81.3087 73.0073 81.2326 72.7668 81.0804C72.5345 80.9281 72.4184 80.6912 72.4184 80.3698Z" fill="#76554C"/>
<path d="M76.1633 77.6164C76.238 77.1342 76.3789 76.6901 76.5863 76.2841C76.7937 75.8781 77.0301 75.527 77.2955 75.2309C77.5692 74.9264 77.8637 74.6769 78.1788 74.4823C78.4941 74.2877 78.8009 74.1651 79.0995 74.1144C79.3981 74.0551 79.6719 74.0678 79.9206 74.1524C80.1778 74.237 80.3851 74.4062 80.5428 74.6599C80.5428 74.8545 80.4971 75.0406 80.4059 75.2182C80.3229 75.3959 80.2276 75.5735 80.1197 75.7512C80.0202 75.9288 79.9248 76.1107 79.8336 76.2968C79.7507 76.4829 79.7092 76.6817 79.7092 76.8931C79.7092 77.1131 79.7548 77.2907 79.8461 77.426C79.9456 77.5529 80.1156 77.6164 80.3561 77.6164C80.5552 77.6164 80.746 77.5868 80.9285 77.5276C81.1192 77.4683 81.31 77.4387 81.5008 77.4387C81.534 77.4387 81.5879 77.443 81.6625 77.4514C81.7454 77.4514 81.7994 77.4514 81.8243 77.4514C81.7247 77.5952 81.5962 77.7179 81.4386 77.8194C81.2809 77.9209 81.1151 78.0097 80.9409 78.0859C80.7667 78.1535 80.5842 78.2043 80.3935 78.2381C80.211 78.2719 80.041 78.2889 79.8834 78.2889C79.7341 78.2889 79.6013 78.255 79.4853 78.1874C79.3691 78.1197 79.2696 78.0309 79.1867 77.9209C79.1037 77.8109 79.0373 77.6883 78.9876 77.5529C78.9461 77.4092 78.9254 77.2696 78.9254 77.1342C78.8009 77.278 78.664 77.4303 78.5148 77.591C78.3738 77.7433 78.2203 77.8828 78.0545 78.0097C77.8969 78.1366 77.7227 78.2423 77.5319 78.327C77.3494 78.4115 77.1586 78.4539 76.9596 78.4539C76.7439 78.4539 76.5573 78.3734 76.3997 78.2128C76.2421 78.0436 76.1633 77.8448 76.1633 77.6164ZM76.9844 77.223C76.9844 77.2907 76.9844 77.3668 76.9844 77.4514C76.9928 77.536 77.0466 77.591 77.1462 77.6164C77.3536 77.5656 77.59 77.4557 77.8554 77.2865C78.1208 77.1088 78.3696 76.9058 78.6018 76.6774C78.8341 76.4406 79.029 76.191 79.1867 75.9288C79.3442 75.6581 79.423 75.4001 79.423 75.1548C79.423 75.1379 79.4189 75.1125 79.4106 75.0787C79.4106 75.0364 79.4106 75.0068 79.4106 74.9898C79.1285 74.9898 78.8424 75.0491 78.5521 75.1675C78.2618 75.2859 78.0005 75.4508 77.7682 75.6624C77.536 75.8654 77.3452 76.1022 77.196 76.3729C77.055 76.6436 76.9844 76.927 76.9844 77.223Z" fill="#76554C"/>
<path d="M81.4635 77.0327C81.4635 76.872 81.4842 76.7324 81.5257 76.614C81.5754 76.4955 81.6957 76.4364 81.8865 76.4364C81.9031 76.4364 81.9403 76.4406 81.9985 76.4491C82.0648 76.4491 82.1104 76.4533 82.1353 76.4618C82.127 76.8593 82.1892 77.1596 82.3219 77.3626C82.4546 77.5572 82.7034 77.6544 83.0684 77.6544C83.367 77.6544 83.6614 77.608 83.9516 77.5149C84.2419 77.4218 84.5034 77.2865 84.7354 77.1088C84.9765 76.9228 85.1669 76.6986 85.3082 76.4364C85.4571 76.1741 85.5319 75.8781 85.5319 75.5482C85.5319 75.3451 85.4617 75.2014 85.3203 75.1167C85.1873 75.0322 85.0384 74.9645 84.8722 74.9137C84.7066 74.863 84.5532 74.808 84.4119 74.7488C84.2796 74.6811 84.2131 74.5669 84.2131 74.4062C84.2131 74.2116 84.3295 74.0256 84.5615 73.8479C84.7936 73.6703 85.0671 73.5138 85.3823 73.3784C85.6975 73.2346 86.0088 73.1246 86.3157 73.0485C86.6308 72.964 86.8712 72.9216 87.0374 72.9216C87.0374 73.167 86.9838 73.3404 86.8757 73.4419C86.7759 73.5434 86.652 73.6237 86.5023 73.683C86.3527 73.7422 86.1993 73.8014 86.0421 73.8606C85.8924 73.9114 85.7685 74.0129 85.6687 74.1651C85.8017 74.275 85.9091 74.3766 85.9922 74.4697C86.0836 74.5542 86.1539 74.6473 86.2038 74.7488C86.2537 74.8503 86.2869 74.9645 86.3036 75.0913C86.3202 75.2098 86.3278 75.3536 86.3278 75.5228C86.3278 75.9627 86.2325 76.3645 86.0421 76.7282C85.8592 77.0835 85.6189 77.3923 85.3203 77.6544C85.0218 77.9082 84.6817 78.1071 84.3001 78.2508C83.9184 78.3862 83.5287 78.4539 83.1306 78.4539C82.915 78.4539 82.7034 78.4285 82.4961 78.3777C82.2971 78.3185 82.1187 78.2296 81.9611 78.1113C81.8118 77.9929 81.6915 77.8448 81.6003 77.6671C81.509 77.4895 81.4635 77.2781 81.4635 77.0327Z" fill="#76554C"/>
<path d="M88.2194 75.1421C88.4431 75.1167 88.6835 75.0872 88.9412 75.0533C89.2064 75.011 89.4755 74.9729 89.7498 74.9391C90.0234 74.8968 90.2932 74.8629 90.5585 74.8376C90.8321 74.8122 91.089 74.7995 91.3294 74.7995C91.3959 74.7995 91.4662 74.7995 91.541 74.7995C91.6158 74.7911 91.6861 74.7995 91.7526 74.8249C91.8274 74.8419 91.8939 74.8756 91.9514 74.9264C92.0096 74.9687 92.0511 75.0406 92.0761 75.1421C92.0262 75.2352 91.9272 75.3198 91.7775 75.3959C91.6279 75.4635 91.4503 75.5228 91.2425 75.5735C91.0354 75.6243 90.8155 75.6666 90.5834 75.7004C90.3507 75.7258 90.1353 75.7512 89.9365 75.7766C89.737 75.7934 89.5632 75.8061 89.4135 75.8146C89.273 75.8146 89.1898 75.8146 89.1649 75.8146C89.0901 75.8146 88.9986 75.8104 88.8913 75.8019C88.7832 75.785 88.6797 75.7639 88.5799 75.7385C88.4802 75.7046 88.3932 75.6666 88.3184 75.6243C88.2527 75.582 88.2194 75.5355 88.2194 75.4847V75.1421Z" fill="#76554C"/>
<path d="M92.6361 77.2865C92.6361 77.2357 92.6361 77.1723 92.6361 77.0961C92.6361 77.02 92.6444 76.9482 92.661 76.8804C92.6777 76.8043 92.7026 76.7409 92.7359 76.6901C92.7691 76.6394 92.8182 76.614 92.8847 76.614C92.9512 76.614 93.0215 76.6775 93.0964 76.8043C93.1795 76.9228 93.283 77.0581 93.4077 77.2103C93.5317 77.3542 93.6851 77.4895 93.868 77.6164C94.0584 77.7348 94.295 77.794 94.5769 77.794C94.7923 77.794 95.05 77.7602 95.3485 77.6925C95.647 77.6249 95.9539 77.5318 96.269 77.4134C96.5925 77.2865 96.9077 77.1385 97.2145 76.9693C97.5296 76.7916 97.8115 76.6013 98.0609 76.3983C98.3096 76.1868 98.5084 75.9669 98.658 75.7385C98.8152 75.5016 98.8945 75.2563 98.8945 75.0025C98.5953 75.0025 98.3096 75.0364 98.036 75.104C97.7617 75.1717 97.4594 75.2055 97.1276 75.2055C97.1276 75.1294 97.1397 75.0576 97.1646 74.9898C97.1896 74.9137 97.244 74.8587 97.3263 74.8249L99.5785 73.8479L99.9141 73.5053C99.9473 73.4207 100.01 73.2769 100.101 73.0739C100.192 72.8709 100.287 72.6594 100.387 72.4394C100.495 72.2111 100.594 71.9954 100.686 71.7924C100.777 71.5894 100.844 71.4498 100.885 71.3736C100.885 71.3652 100.901 71.3356 100.934 71.2848C100.968 71.2341 101.001 71.1833 101.034 71.1326C101.076 71.0733 101.109 71.0225 101.134 70.9803C101.167 70.9295 101.188 70.8957 101.196 70.8788C101.196 70.8111 101.192 70.7519 101.184 70.7011C101.175 70.6504 101.126 70.5954 101.034 70.5362C100.246 70.8322 99.4871 71.1072 98.757 71.361C98.0277 71.6062 97.2848 71.8812 96.5305 72.1857C96.5222 72.1857 96.5056 72.1899 96.4806 72.1984C96.464 72.1984 96.4474 72.1984 96.4308 72.1984C96.3643 72.1984 96.3061 72.173 96.2562 72.1223C96.2154 72.0715 96.1942 72.0123 96.1942 71.9447C96.1942 71.86 96.331 71.7331 96.6046 71.564C96.8872 71.3863 97.2394 71.2002 97.6627 71.0057C98.0851 70.8026 98.5499 70.5954 99.0563 70.3839C99.5702 70.1725 100.06 69.9821 100.524 69.813C100.989 69.6353 101.399 69.4915 101.756 69.3816C102.113 69.2716 102.353 69.2166 102.478 69.2166C102.651 69.2166 102.805 69.2589 102.938 69.3435C103.07 69.428 103.137 69.5803 103.137 69.8003C103.137 69.8679 103.116 69.9229 103.075 69.9652C103.041 70.0075 102.996 70.0456 102.938 70.0794C102.888 70.1048 102.834 70.1301 102.776 70.1555C102.726 70.1725 102.685 70.1936 102.651 70.2189C102.602 70.2613 102.536 70.3247 102.453 70.4093C102.37 70.4939 102.283 70.5785 102.191 70.6631C102.108 70.7477 102.034 70.828 101.967 70.9041C101.901 70.9718 101.864 71.0142 101.856 71.031C101.781 71.1579 101.686 71.3356 101.569 71.564C101.461 71.7839 101.358 72.0081 101.258 72.2364C101.159 72.4648 101.071 72.6721 100.997 72.8582C100.922 73.0358 100.885 73.1415 100.885 73.1754V73.4165C100.918 73.4165 100.976 73.408 101.059 73.3911C101.15 73.3657 101.241 73.3488 101.333 73.3404C101.424 73.3319 101.503 73.3445 101.569 73.3784C101.644 73.4123 101.681 73.4841 101.681 73.5941C101.681 73.6956 101.627 73.7802 101.519 73.8479C101.478 73.8648 101.403 73.8987 101.296 73.9494C101.196 73.9917 101.084 74.0383 100.959 74.089C100.844 74.1398 100.731 74.1905 100.624 74.2413C100.516 74.2835 100.441 74.3131 100.399 74.3301C100.035 74.9391 99.6488 75.4974 99.2422 76.005C98.8447 76.5125 98.401 76.9482 97.9113 77.3118C97.4299 77.6671 96.891 77.9463 96.294 78.1493C95.7052 78.3523 95.0455 78.4539 94.3154 78.4539C94.1582 78.4539 93.9798 78.4327 93.7803 78.3904C93.5899 78.3481 93.4077 78.2804 93.2331 78.1874C93.0676 78.0859 92.9263 77.9632 92.8099 77.8194C92.6943 77.6671 92.6361 77.4895 92.6361 77.2865Z" fill="#76554C"/>
<path d="M101.432 77.7813C101.291 77.4599 101.229 77.1469 101.246 76.8424C101.262 76.5294 101.329 76.2376 101.444 75.9669C101.569 75.6877 101.726 75.4382 101.918 75.2182C102.116 74.9898 102.328 74.7953 102.552 74.6346C102.776 74.4654 103 74.3385 103.224 74.254C103.456 74.1693 103.66 74.1355 103.833 74.1525C104.008 74.1609 104.145 74.2243 104.244 74.3428C104.344 74.4612 104.377 74.643 104.344 74.8883C104.344 75.2182 104.24 75.5059 104.032 75.7512C103.833 75.9965 103.61 76.2164 103.361 76.411C103.12 76.6055 102.896 76.7832 102.689 76.9439C102.49 77.0962 102.39 77.24 102.39 77.3753C102.39 77.4514 102.431 77.5107 102.515 77.5529C102.606 77.5953 102.71 77.6291 102.826 77.6544C102.942 77.6714 103.058 77.6841 103.174 77.6925C103.29 77.701 103.373 77.7095 103.423 77.7179C104.202 77.5487 104.787 77.4472 105.177 77.4134C105.567 77.3711 105.812 77.3753 105.911 77.426C106.011 77.4684 105.99 77.5402 105.849 77.6418C105.716 77.7348 105.509 77.8363 105.227 77.9463C104.945 78.0478 104.617 78.1408 104.244 78.2255C103.87 78.3101 103.502 78.3608 103.137 78.3777C102.772 78.3862 102.431 78.3481 102.116 78.2635C101.81 78.1789 101.581 78.0182 101.432 77.7813ZM103.61 74.8883C103.443 74.8883 103.286 74.9349 103.137 75.0279C102.988 75.121 102.851 75.2394 102.726 75.3832C102.61 75.5186 102.511 75.6708 102.428 75.84C102.345 76.0008 102.283 76.153 102.241 76.2968C102.258 76.3052 102.27 76.3095 102.278 76.3095H102.316C102.431 76.3095 102.565 76.2587 102.713 76.1572C102.863 76.0557 103.004 75.933 103.137 75.7892C103.27 75.637 103.381 75.4805 103.473 75.3198C103.564 75.1591 103.61 75.0152 103.61 74.8883Z" fill="#76554C"/>
<path d="M105.563 77.6164C105.563 77.498 105.575 77.3965 105.6 77.3118C105.625 77.2188 105.671 77.1004 105.737 76.9566C105.795 76.872 105.899 76.7113 106.048 76.4745C106.206 76.2376 106.368 75.988 106.533 75.7258C106.708 75.4636 106.869 75.2182 107.018 74.9898C107.176 74.753 107.284 74.5881 107.342 74.495C107.416 74.3851 107.475 74.3258 107.516 74.3174C107.558 74.3089 107.636 74.3047 107.753 74.3047C107.828 74.3047 107.906 74.3089 107.989 74.3174C108.08 74.3258 108.138 74.3851 108.163 74.495C108.047 74.7826 107.89 75.0576 107.69 75.3198C107.5 75.5735 107.309 75.8273 107.118 76.0811C106.936 76.3349 106.774 76.5971 106.633 76.8678C106.492 77.13 106.421 77.4134 106.421 77.7179C106.454 77.7179 106.504 77.7221 106.571 77.7306C106.646 77.7391 106.724 77.7475 106.807 77.756C106.89 77.7644 106.965 77.7729 107.031 77.7813C107.106 77.7898 107.16 77.7898 107.193 77.7813C107.243 77.7729 107.326 77.756 107.441 77.7306C107.566 77.6968 107.695 77.6629 107.828 77.6291C107.968 77.5953 108.101 77.5614 108.225 77.5276C108.35 77.4938 108.437 77.4684 108.487 77.4514C108.487 77.4684 108.487 77.498 108.487 77.5402C108.495 77.5741 108.5 77.5995 108.5 77.6164C108.5 77.7856 108.42 77.9251 108.263 78.0351C108.113 78.1451 107.935 78.2339 107.728 78.3016C107.528 78.3608 107.321 78.4031 107.106 78.4285C106.898 78.4454 106.736 78.4539 106.621 78.4539C106.496 78.4539 106.368 78.4412 106.234 78.4158C106.111 78.3819 105.999 78.3312 105.899 78.2635C105.799 78.1958 105.716 78.1113 105.65 78.0097C105.592 77.8997 105.563 77.7686 105.563 77.6164ZM109.183 70.1809C109.292 70.1809 109.391 70.1852 109.482 70.1936C109.573 70.2021 109.652 70.2232 109.719 70.257C109.785 70.2909 109.839 70.3416 109.88 70.4093C109.922 70.477 109.942 70.57 109.942 70.6884C109.942 70.7392 109.942 70.7942 109.942 70.8534C109.942 70.9126 109.934 70.9718 109.917 71.031C109.909 71.0818 109.889 71.1284 109.855 71.1706C109.822 71.2045 109.768 71.2214 109.694 71.2214C109.577 71.2214 109.482 71.1791 109.407 71.0945C109.341 71.0099 109.292 70.9126 109.258 70.8026C109.225 70.6842 109.204 70.5658 109.196 70.4473C109.187 70.3289 109.183 70.2401 109.183 70.1809Z" fill="#76554C"/>
<path d="M111.336 77.4641C111.336 77.2103 111.386 76.9777 111.485 76.7663C111.593 76.5463 111.709 76.3391 111.833 76.1445C111.958 75.95 112.07 75.7554 112.169 75.5608C112.278 75.3663 112.331 75.1591 112.331 74.9391C112.331 74.8883 112.327 74.8292 112.318 74.7614C112.318 74.6853 112.31 74.6135 112.294 74.5458C112.286 74.4781 112.261 74.4231 112.219 74.3808C112.186 74.3301 112.141 74.3047 112.083 74.3047C112.074 74.3047 112.058 74.3089 112.033 74.3174C112.016 74.3174 112.008 74.3216 112.008 74.3301C111.891 74.4908 111.751 74.6726 111.585 74.8756C111.427 75.0702 111.257 75.2648 111.074 75.4593C110.892 75.6539 110.714 75.84 110.539 76.0177C110.365 76.1953 110.208 76.3433 110.067 76.4618C109.967 76.5548 109.83 76.6817 109.657 76.8424C109.49 77.0031 109.32 77.1639 109.146 77.3245C108.98 77.4768 108.831 77.6122 108.698 77.7306C108.574 77.849 108.503 77.9082 108.487 77.9082L107.915 77.4134C107.989 77.4134 108.063 77.3965 108.138 77.3626C108.205 77.3288 108.271 77.2908 108.337 77.2484C108.835 76.9101 109.283 76.5209 109.681 76.0811C110.087 75.6412 110.486 75.1675 110.876 74.6599C110.892 74.6346 110.934 74.5627 111 74.4443C111.074 74.3174 111.153 74.1778 111.236 74.0256C111.319 73.8648 111.402 73.7083 111.485 73.5561C111.568 73.3953 111.631 73.2684 111.671 73.1754C111.721 73.0654 111.751 72.9766 111.759 72.9089C111.776 72.8413 111.788 72.7905 111.796 72.7567C111.813 72.7144 111.838 72.6848 111.871 72.6678C111.904 72.6509 111.974 72.6425 112.083 72.6425C112.099 72.6425 112.136 72.6467 112.194 72.6551C112.261 72.6636 112.302 72.6721 112.318 72.6805C112.426 72.9089 112.522 73.1119 112.605 73.2896C112.688 73.4672 112.758 73.6364 112.816 73.7972C112.875 73.9494 112.916 74.1059 112.941 74.2666C112.974 74.4273 112.99 74.605 112.99 74.7995C112.883 75.0787 112.763 75.3663 112.63 75.6624C112.497 75.95 112.385 76.2249 112.294 76.4871C112.203 76.7493 112.145 76.9862 112.12 77.1976C112.103 77.4092 112.148 77.5783 112.256 77.7052C112.373 77.8236 112.563 77.887 112.828 77.8955C113.103 77.904 113.488 77.8321 113.986 77.6798C114.119 77.7475 114.131 77.8321 114.023 77.9336C113.915 78.0266 113.75 78.1154 113.525 78.2001C113.31 78.2847 113.07 78.3565 112.804 78.4158C112.547 78.4665 112.331 78.4792 112.157 78.4539C111.999 78.4539 111.866 78.4285 111.759 78.3777C111.659 78.3185 111.576 78.2423 111.51 78.1493C111.452 78.0563 111.406 77.9505 111.373 77.8321C111.348 77.7137 111.336 77.591 111.336 77.4641Z" fill="#76554C"/>
<path d="M113.513 77.6164C113.588 77.1342 113.729 76.6901 113.936 76.2841C114.144 75.8781 114.38 75.527 114.645 75.2309C114.919 74.9264 115.214 74.6769 115.529 74.4823C115.844 74.2877 116.151 74.1651 116.449 74.1144C116.748 74.0551 117.021 74.0678 117.271 74.1524C117.528 74.237 117.735 74.4062 117.893 74.6599C117.893 74.8545 117.847 75.0406 117.756 75.2182C117.673 75.3959 117.578 75.5735 117.47 75.7512C117.37 75.9288 117.275 76.1107 117.183 76.2968C117.101 76.4829 117.059 76.6817 117.059 76.8931C117.059 77.1131 117.105 77.2907 117.196 77.426C117.295 77.5529 117.465 77.6164 117.706 77.6164C117.905 77.6164 118.096 77.5868 118.278 77.5276C118.469 77.4683 118.66 77.4387 118.85 77.4387C118.884 77.4387 118.937 77.443 119.012 77.4514C119.095 77.4514 119.149 77.4514 119.174 77.4514C119.075 77.5952 118.946 77.7179 118.788 77.8194C118.63 77.9209 118.465 78.0097 118.29 78.0859C118.117 78.1535 117.934 78.2043 117.743 78.2381C117.561 78.2719 117.391 78.2889 117.233 78.2889C117.084 78.2889 116.951 78.255 116.835 78.1874C116.719 78.1197 116.619 78.0309 116.536 77.9209C116.453 77.8109 116.387 77.6883 116.337 77.5529C116.296 77.4092 116.276 77.2696 116.276 77.1342C116.151 77.278 116.014 77.4303 115.864 77.591C115.724 77.7433 115.57 77.8828 115.404 78.0097C115.247 78.1366 115.072 78.2423 114.882 78.327C114.699 78.4115 114.509 78.4539 114.309 78.4539C114.094 78.4539 113.907 78.3734 113.75 78.2128C113.592 78.0436 113.513 77.8448 113.513 77.6164ZM114.334 77.223C114.334 77.2907 114.334 77.3668 114.334 77.4514C114.342 77.536 114.397 77.591 114.496 77.6164C114.704 77.5656 114.94 77.4557 115.205 77.2865C115.471 77.1088 115.719 76.9058 115.951 76.6774C116.184 76.4406 116.379 76.191 116.536 75.9288C116.694 75.6581 116.773 75.4001 116.773 75.1548C116.773 75.1379 116.769 75.1125 116.761 75.0787C116.761 75.0364 116.761 75.0068 116.761 74.9898C116.478 74.9898 116.192 75.0491 115.902 75.1675C115.612 75.2859 115.35 75.4508 115.118 75.6624C114.886 75.8654 114.695 76.1022 114.546 76.3729C114.405 76.6436 114.334 76.927 114.334 77.223Z" fill="#76554C"/>
<path d="M118.813 77.0327C118.813 76.872 118.834 76.7324 118.875 76.614C118.925 76.4955 119.045 76.4364 119.237 76.4364C119.253 76.4364 119.29 76.4406 119.348 76.4491C119.415 76.4491 119.46 76.4533 119.485 76.4618C119.477 76.8593 119.539 77.1596 119.672 77.3626C119.804 77.5572 120.054 77.6544 120.418 77.6544C120.717 77.6544 121.011 77.608 121.301 77.5149C121.592 77.4218 121.853 77.2865 122.085 77.1088C122.326 76.9228 122.517 76.6986 122.658 76.4364C122.807 76.1741 122.882 75.8781 122.882 75.5482C122.882 75.3451 122.811 75.2014 122.67 75.1167C122.538 75.0322 122.388 74.9645 122.223 74.9137C122.056 74.863 121.903 74.808 121.762 74.7488C121.629 74.6811 121.563 74.5669 121.563 74.4062C121.563 74.2116 121.679 74.0256 121.911 73.8479C122.143 73.6703 122.417 73.5138 122.733 73.3784C123.048 73.2346 123.359 73.1246 123.665 73.0485C123.981 72.964 124.222 72.9216 124.387 72.9216C124.387 73.167 124.333 73.3404 124.225 73.4419C124.126 73.5434 124.002 73.6237 123.852 73.683C123.703 73.7422 123.55 73.8014 123.392 73.8606C123.242 73.9114 123.118 74.0129 123.018 74.1651C123.151 74.275 123.259 74.3766 123.342 74.4697C123.433 74.5542 123.504 74.6473 123.554 74.7488C123.603 74.8503 123.637 74.9645 123.653 75.0913C123.67 75.2098 123.678 75.3536 123.678 75.5228C123.678 75.9627 123.582 76.3645 123.392 76.7282C123.21 77.0835 122.969 77.3923 122.67 77.6544C122.371 77.9082 122.031 78.1071 121.65 78.2508C121.268 78.3862 120.879 78.4539 120.481 78.4539C120.264 78.4539 120.054 78.4285 119.846 78.3777C119.647 78.3185 119.469 78.2296 119.311 78.1113C119.162 77.9929 119.042 77.8448 118.95 77.6671C118.859 77.4895 118.813 77.2781 118.813 77.0327Z" fill="#76554C"/>
<defs>
<filter id="filter0_d_3_35" x="0.694656" y="0.381409" width="178.611" height="179.237" filterUnits="userSpaceOnUse" color-interpolation-filters="sRGB">
<feFlood flood-opacity="0" result="BackgroundImageFix"/>
<feColorMatrix in="SourceAlpha" type="matrix" values="0 0 0 0 0 0 0 0 0 0 0 0 0 0 0 0 0 0 127 0" result="hardAlpha"/>
<feOffset/>
<feGaussianBlur stdDeviation="6"/>
<feComposite in2="hardAlpha" operator="out"/>
<feColorMatrix type="matrix" values="0 0 0 0 0 0 0 0 0 0 0 0 0 0 0 0 0 0 0.1 0"/>
<feBlend mode="normal" in2="BackgroundImageFix" result="effect1_dropShadow_3_35"/>
<feBlend mode="normal" in="SourceGraphic" in2="effect1_dropShadow_3_35" result="shape"/>
</filter>
</defs>
</svg>
