<svg width="164" height="164" viewBox="0 0 164 164" fill="none" xmlns="http://www.w3.org/2000/svg">
<g filter="url(#filter0_d_3_58)">
<path d="M78.4101 6.49972C79.97 3.6753 84.03 3.6753 85.5899 6.49972C86.9895 9.03373 90.5031 9.35931 92.3441 7.12561C94.3967 4.63593 98.3872 5.38192 99.4021 8.44491C100.312 11.1929 103.706 12.1586 105.927 10.3012C108.401 8.23111 112.187 9.69766 112.621 12.8949C113.011 15.7634 116.169 17.3362 118.694 15.9185C121.507 14.3383 124.958 16.4756 124.798 19.6982C124.654 22.5894 127.47 24.7158 130.211 23.7861C133.267 22.7498 136.267 25.4849 135.517 28.6231C134.844 31.4387 137.221 34.0463 140.087 33.6361C143.281 33.1789 145.728 36.4188 144.414 39.3657C143.235 42.0097 145.092 45.0097 147.985 45.1331C151.209 45.2705 153.018 48.9048 151.185 51.5602C149.541 53.9425 150.815 57.2328 153.635 57.8855C156.779 58.613 157.89 62.5178 155.6 64.7912C153.546 66.8309 154.195 70.2993 156.847 71.4591C159.803 72.7518 160.178 76.7943 157.51 78.6081C155.115 80.236 155.115 83.7639 157.51 85.3918C160.178 87.2056 159.803 91.2482 156.847 92.5406C154.195 93.7006 153.546 97.1688 155.6 99.2086C157.89 101.482 156.779 105.387 153.635 106.115C150.815 106.767 149.541 110.058 151.185 112.44C153.018 115.095 151.209 118.729 147.985 118.867C145.092 118.99 143.235 121.99 144.414 124.634C145.728 127.581 143.281 130.821 140.087 130.364C137.221 129.954 134.844 132.561 135.517 135.377C136.267 138.515 133.267 141.25 130.211 140.214C127.47 139.284 124.654 141.41 124.798 144.302C124.958 147.524 121.507 149.662 118.694 148.081C116.169 146.664 113.011 148.236 112.621 151.105C112.187 154.302 108.401 155.769 105.927 153.699C103.706 151.841 100.312 152.807 99.4021 155.555C98.3872 158.618 94.3967 159.364 92.3441 156.875C90.5031 154.641 86.9895 154.966 85.5899 157.5C84.03 160.325 79.97 160.325 78.4101 157.5C77.0105 154.966 73.497 154.641 71.6557 156.875C69.6033 159.364 65.6125 158.618 64.5981 155.555C63.6879 152.807 60.2941 151.841 58.0737 153.699C55.5987 155.769 51.813 154.302 51.3786 151.105C50.989 148.236 47.8304 146.664 45.3065 148.081C42.4933 149.662 39.0414 147.524 39.202 144.302C39.3461 141.41 36.5302 139.284 33.7888 140.214C30.7331 141.25 27.7329 138.515 28.4828 135.377C29.1556 132.561 26.7786 129.954 23.9129 130.364C20.7189 130.821 18.2722 127.581 19.5861 124.634C20.7648 121.99 18.9073 118.99 16.0151 118.867C12.7915 118.729 10.9818 115.095 12.8147 112.44C14.4593 110.058 13.1846 106.767 10.3643 106.115C7.22084 105.387 6.10979 101.482 8.39952 99.2086C10.4538 97.1688 9.80539 93.7006 7.15305 92.5406C4.19674 91.2482 3.82214 87.2056 6.49058 85.3918C8.88464 83.7639 8.88464 80.236 6.49058 78.6081C3.82214 76.7943 4.19674 72.7518 7.15306 71.4591C9.80539 70.2993 10.4538 66.8308 8.39952 64.7912C6.1098 62.5178 7.22084 58.613 10.3643 57.8855C13.1846 57.2328 14.4593 53.9425 12.8147 51.5602C10.9818 48.9048 12.7915 45.2705 16.0151 45.1331C18.9073 45.0097 20.7648 42.0097 19.5861 39.3657C18.2722 36.4188 20.7189 33.1789 23.9129 33.6361C26.7786 34.0463 29.1556 31.4387 28.4828 28.6231C27.7329 25.4849 30.7331 22.7498 33.7888 23.7861C36.5302 24.7158 39.3461 22.5894 39.202 19.6982C39.0414 16.4756 42.4933 14.3383 45.3065 15.9185C47.8304 17.3362 50.989 15.7634 51.3786 12.8949C51.813 9.69766 55.5987 8.23111 58.0737 10.3013C60.2941 12.1586 63.6879 11.1929 64.5981 8.44491C65.6125 5.38193 69.6033 4.63593 71.6557 7.12561C73.497 9.35931 77.0105 9.03373 78.4101 6.49972Z" fill="#76554C"/>
</g>
<path d="M82.3779 149.263C119.317 149.263 149.263 119.317 149.263 82.3779C149.263 45.4384 119.317 15.4931 82.3779 15.4931C45.4384 15.4931 15.4931 45.4384 15.4931 82.3779C15.4931 119.317 45.4384 149.263 82.3779 149.263Z" fill="#76554C" stroke="#EFC4D8" stroke-width="5"/>
<path d="M82 140.571C114.348 140.571 140.571 114.348 140.571 82C140.571 49.6519 114.348 23.4286 82 23.4286C49.6519 23.4286 23.4286 49.6519 23.4286 82C23.4286 114.348 49.6519 140.571 82 140.571Z" fill="#76554C" stroke="#EFC4D8" stroke-width="2" stroke-linecap="round" stroke-dasharray="1 5"/>
<path d="M31.7419 92.5655C31.7419 91.4168 32.0157 89.3914 32.5633 86.4892C33.1108 83.5871 33.4454 81.7529 33.5671 80.9873L31.9549 77.7526C34.5304 76.3016 36.7207 75.576 38.5256 75.576C39.4179 75.576 40.0871 75.8784 40.5333 76.483C42.2165 75.8988 43.768 75.6063 45.1875 75.6063C47.8239 75.6063 49.8722 76.4626 51.3324 78.1759C52.7925 79.8688 53.5226 81.9849 53.5226 84.5242C53.5226 87.87 52.2855 90.9429 49.8113 93.7445C48.6148 95.0951 47.033 96.1834 45.0658 97.0094C43.119 97.8355 41.0302 98.2489 38.7994 98.2489C36.5685 98.2489 34.8347 97.7652 33.5976 96.7978C32.3604 95.81 31.7419 94.3998 31.7419 92.5655ZM38.191 93.7143C38.6169 93.7952 39.0934 93.8352 39.6207 93.8352C41.8312 93.8352 43.555 93.0492 44.7921 91.4772C46.0291 89.8849 46.6477 87.9305 46.6477 85.6125C46.6477 83.7383 46.2218 82.2471 45.37 81.1384C44.5183 80.0297 43.2914 79.4758 41.6893 79.4758C41.4459 79.4758 41.0403 79.5158 40.4725 79.5967C40.3305 80.6245 39.9553 82.922 39.3469 86.4892C38.7588 90.036 38.3735 92.4446 38.191 93.7143Z" fill="#EFC4D8"/>
<path d="M69.8997 81.6524C71.0353 81.6524 72.0088 82.1058 72.82 83.0127C73.6514 83.9196 74.0672 85.24 74.0672 86.9729C74.0672 88.6862 73.763 90.2779 73.1546 91.7493C72.5462 93.2004 71.7452 94.3892 70.7514 95.3165C69.7577 96.2438 68.6322 96.9694 67.3748 97.4931C66.1175 97.9972 64.8297 98.2489 63.5115 98.2489C60.8548 98.2489 58.7558 97.5233 57.2145 96.0723C55.6733 94.6212 54.9027 92.6963 54.9027 90.2983C54.9027 87.0538 55.947 84.4237 58.0359 82.4081C60.145 80.3729 62.822 79.3549 66.0668 79.3549C66.7968 79.3549 67.5269 79.4357 68.2569 79.5967C68.48 80.2618 68.6017 81.0175 68.6221 81.864C69.0479 81.7227 69.4738 81.6524 69.8997 81.6524ZM66.158 85.8544C66.158 85.2898 66.2899 84.655 66.5535 83.9499C66.8374 83.2448 67.2835 82.6802 67.8919 82.257C65.215 82.8215 63.3695 83.8992 62.3555 85.4916C61.4835 86.8618 61.0474 88.2728 61.0474 89.7239C61.0474 91.175 61.3415 92.3441 61.9296 93.2306C62.538 94.0975 63.3087 94.5305 64.2416 94.5305C66.3101 94.5305 67.7702 93.1906 68.6221 90.5099C66.9793 89.5025 66.158 87.9501 66.158 85.8544Z" fill="#EFC4D8"/>
<path d="M76.6485 90.2983C76.6485 87.0734 77.7632 84.4434 79.9942 82.4081C82.2252 80.3729 85.0336 79.3549 88.4209 79.3549C90.1645 79.3549 91.5437 79.6874 92.558 80.3525C93.5714 80.9971 94.0786 81.8133 94.0786 82.8011C94.0786 83.7889 93.7339 84.5447 93.0447 85.0684C92.3751 85.5921 91.6352 85.8544 90.8235 85.8544C90.033 85.8544 89.3029 85.6428 88.6333 85.2196C87.9849 84.7963 87.4778 84.1819 87.1127 83.3755C85.8347 83.8992 84.8213 84.8266 84.0708 86.1567C83.3407 87.4868 82.9757 88.817 82.9757 90.1471C82.9757 91.4773 83.2394 92.5557 83.7662 93.3818C84.2937 94.2078 84.983 94.6212 85.8347 94.6212C86.6865 94.6212 87.3765 94.3393 87.9032 93.7748C88.4512 93.2102 88.7248 92.3743 88.7248 91.2656C91.6858 91.2656 93.1664 91.9609 93.1664 93.3515C93.1664 94.5403 92.4159 95.6589 90.9149 96.7071C89.414 97.7349 87.4369 98.2489 84.983 98.2489C82.529 98.2489 80.5217 97.5233 78.9603 96.0723C77.4186 94.6008 76.6485 92.6766 76.6485 90.2983Z" fill="#EFC4D8"/>
<path d="M104.747 98.2489C101.969 98.2489 99.8186 97.5332 98.298 96.1025C96.797 94.6719 96.0466 92.7371 96.0466 90.2983C96.0466 87.0538 97.1621 84.4237 99.3931 82.4081C101.644 80.3729 104.463 79.3549 107.85 79.3549C109.736 79.3549 111.166 79.7781 112.139 80.6245C113.112 81.4506 113.599 82.5495 113.599 83.9197C113.599 85.7939 112.676 87.3561 110.831 88.6054C109.006 89.835 106.177 90.4592 102.344 90.4797C102.405 91.7697 102.699 92.787 103.226 93.5329C103.753 94.2585 104.412 94.6212 105.203 94.6212C105.994 94.6212 106.673 94.359 107.242 93.8352C107.83 93.3115 108.124 92.4545 108.124 91.2656C111.085 91.2656 112.564 91.9609 112.564 93.3515C112.564 94.5403 111.834 95.6589 110.374 96.7071C108.914 97.7349 107.038 98.2489 104.747 98.2489ZM107.332 82.8918C106.298 82.8918 105.345 83.4057 104.473 84.4336C103.622 85.4614 103.003 86.6706 102.617 88.0612C104.646 87.9002 106.166 87.4468 107.18 86.7009C108.215 85.9353 108.732 85.1289 108.732 84.2824C108.732 83.8796 108.6 83.5471 108.337 83.2848C108.093 83.0226 107.759 82.8918 107.332 82.8918Z" fill="#EFC4D8"/>
<path d="M126.048 83.3755C125.298 83.5969 124.699 83.9196 124.253 84.3429C123.806 84.7457 123.411 85.3307 123.067 86.0962C126.494 86.6003 128.907 87.3259 130.307 88.2728C131.706 89.2198 132.405 90.5703 132.405 92.3237C132.405 93.4324 132.091 94.3998 131.462 95.2258C130.833 96.0322 130.043 96.6467 129.09 97.0699C127.224 97.8559 125.388 98.2489 123.583 98.2489C118.453 98.2489 115.888 97.1507 115.888 94.9538C115.888 93.8451 116.384 92.7371 117.378 91.6284C117.885 92.3335 118.645 92.9381 119.66 93.4422C120.693 93.9463 121.698 94.198 122.671 94.198C124.354 94.198 125.369 93.4626 125.713 91.9912C122.63 91.6284 120.399 90.9429 119.021 89.9355C117.642 88.9281 116.952 87.5072 116.952 85.673C116.952 84.222 117.429 83.0029 118.382 82.0151C119.355 81.0274 120.552 80.3426 121.971 79.9595C123.411 79.5566 125.023 79.3549 126.808 79.3549C128.613 79.3549 130.094 79.6972 131.249 80.3827C132.426 81.0478 133.014 81.864 133.014 82.8314C133.014 83.7987 132.669 84.5447 131.979 85.0684C131.31 85.5921 130.57 85.8544 129.759 85.8544C128.968 85.8544 128.238 85.6428 127.569 85.2196C126.919 84.7963 126.413 84.1819 126.048 83.3755Z" fill="#EFC4D8"/>
<path d="M49.9737 70.1239C49.9737 69.9294 50.0151 69.7264 50.0981 69.5149C50.181 69.295 50.2557 69.1088 50.322 68.9566C50.38 68.8381 50.4713 68.6563 50.5957 68.411C50.7201 68.1572 50.8612 67.8739 51.0187 67.5608C51.1763 67.2479 51.3422 66.918 51.5164 66.5711C51.6989 66.2243 51.8689 65.8944 52.0265 65.5814C52.1841 65.2684 52.3251 64.9893 52.4495 64.744C52.5823 64.4902 52.6776 64.3041 52.7357 64.1857C52.744 64.1773 52.7605 64.1476 52.7855 64.0969C52.8187 64.0462 52.8518 63.9954 52.885 63.9447C52.9264 63.8939 52.9638 63.8473 52.9969 63.8051C53.0301 63.7543 53.0509 63.7204 53.0591 63.7036C53.0675 63.6866 53.0633 63.6697 53.0468 63.6528C53.0301 63.6359 53.0218 63.6189 53.0218 63.602C52.6652 63.6443 52.2919 63.6993 51.9021 63.767C51.5206 63.8346 51.139 63.915 50.7575 64.0081C50.3842 64.0926 50.0234 64.1941 49.6751 64.3126C49.3267 64.4225 49.0115 64.5494 48.7295 64.6932C48.6382 64.6932 48.5553 64.6763 48.4807 64.6425C48.406 64.6087 48.3687 64.5409 48.3687 64.4394V64.4014C48.3687 64.393 48.3728 64.3803 48.3811 64.3633C48.3977 64.321 48.4226 64.2576 48.4557 64.173C48.4972 64.0799 48.5262 64.0292 48.5429 64.0208L49.6751 63.5259L57.252 61.5592C57.3432 61.796 57.3349 61.9863 57.2271 62.1302C57.1276 62.2655 56.9658 62.3797 56.7419 62.4727C56.518 62.5573 56.2567 62.6335 55.9581 62.7011C55.6677 62.7604 55.3733 62.8365 55.0747 62.9295C54.7844 63.0142 54.5148 63.1326 54.266 63.2848C54.0171 63.4286 53.8305 63.6232 53.7061 63.8685C53.167 64.9597 52.6113 66.0467 52.0389 67.1294C51.4749 68.2122 50.9565 69.3161 50.4837 70.4412C50.4754 70.4412 50.4589 70.4412 50.434 70.4412C50.4174 70.4496 50.4049 70.4539 50.3967 70.4539C50.2888 70.4539 50.1893 70.4285 50.0981 70.3777C50.0151 70.327 49.9737 70.2423 49.9737 70.1239Z" fill="#EFC4D8"/>
<path d="M54.7015 69.7813C54.5605 69.4599 54.4983 69.1469 54.5148 68.8424C54.5314 68.5294 54.5978 68.2376 54.7139 67.9669C54.8384 67.6877 54.9959 67.4382 55.1867 67.2182C55.3858 66.9898 55.5973 66.7953 55.8212 66.6346C56.0452 66.4654 56.2691 66.3385 56.4931 66.254C56.7253 66.1693 56.9285 66.1355 57.1027 66.1525C57.2769 66.1609 57.4138 66.2243 57.5133 66.3428C57.6128 66.4612 57.646 66.643 57.6128 66.8883C57.6128 67.2182 57.5091 67.5059 57.3018 67.7512C57.1027 67.9965 56.8788 68.2164 56.6299 68.411C56.3894 68.6055 56.1654 68.7832 55.9581 68.9439C55.759 69.0962 55.6595 69.24 55.6595 69.3753C55.6595 69.4514 55.7009 69.5107 55.7839 69.5529C55.8751 69.5953 55.9788 69.6291 56.095 69.6544C56.211 69.6714 56.3272 69.6841 56.4433 69.6925C56.5594 69.701 56.6424 69.7095 56.6922 69.7179C57.4718 69.5487 58.0565 69.4472 58.4464 69.4134C58.8363 69.3711 59.0809 69.3753 59.1804 69.426C59.28 69.4684 59.2593 69.5402 59.1182 69.6418C58.9855 69.7348 58.7782 69.8363 58.4962 69.9463C58.2142 70.0478 57.8865 70.1408 57.5133 70.2255C57.14 70.3101 56.7709 70.3608 56.406 70.3777C56.041 70.3862 55.7009 70.3481 55.3858 70.2635C55.0788 70.1789 54.8508 70.0182 54.7015 69.7813ZM56.8788 66.8883C56.7129 66.8883 56.5553 66.9349 56.406 67.0279C56.2567 67.121 56.1198 67.2394 55.9954 67.3832C55.8793 67.5186 55.7797 67.6708 55.6968 67.84C55.6138 68.0008 55.5516 68.153 55.5102 68.2968C55.5268 68.3052 55.5392 68.3095 55.5475 68.3095H55.5848C55.7009 68.3095 55.8336 68.2587 55.983 68.1572C56.1322 68.0557 56.2732 67.933 56.406 67.7892C56.5387 67.637 56.6507 67.4805 56.7419 67.3198C56.8331 67.1591 56.8788 67.0152 56.8788 66.8883Z" fill="#EFC4D8"/>
<path d="M61.6564 69.4641C61.6564 69.2103 61.7061 68.9777 61.8056 68.7663C61.9135 68.5463 62.0296 68.3391 62.154 68.1445C62.2784 67.95 62.3904 67.7554 62.4899 67.5608C62.5977 67.3663 62.6516 67.1591 62.6516 66.9391C62.6516 66.8883 62.6476 66.8292 62.6392 66.7614C62.6392 66.6853 62.6309 66.6135 62.6144 66.5458C62.6061 66.4781 62.5812 66.4231 62.5397 66.3808C62.5065 66.3301 62.4609 66.3047 62.4028 66.3047C62.3945 66.3047 62.378 66.3089 62.3531 66.3174C62.3365 66.3174 62.3282 66.3216 62.3282 66.3301C62.2121 66.4908 62.0711 66.6726 61.9052 66.8756C61.7476 67.0702 61.5775 67.2648 61.395 67.4593C61.2126 67.6539 61.0342 67.84 60.8601 68.0177C60.6859 68.1953 60.5283 68.3433 60.3873 68.4618C60.2878 68.5548 60.1509 68.6817 59.9767 68.8424C59.8108 69.0031 59.6408 69.1639 59.4666 69.3245C59.3007 69.4768 59.1514 69.6122 59.0187 69.7306C58.8943 69.849 58.8238 69.9082 58.8072 69.9082L58.2349 69.4134C58.3096 69.4134 58.3842 69.3965 58.4588 69.3626C58.5252 69.3288 58.5915 69.2908 58.6579 69.2484C59.1556 68.9101 59.6035 68.5209 60.0016 68.0811C60.408 67.6412 60.8061 67.1675 61.196 66.6599C61.2126 66.6346 61.2541 66.5627 61.3204 66.4443C61.395 66.3174 61.4739 66.1778 61.5568 66.0256C61.6397 65.8648 61.7227 65.7083 61.8056 65.5561C61.8886 65.3953 61.9508 65.2684 61.9922 65.1754C62.042 65.0654 62.0711 64.9766 62.0794 64.9089C62.0959 64.8413 62.1084 64.7905 62.1167 64.7567C62.1333 64.7144 62.1581 64.6848 62.1913 64.6678C62.2245 64.6509 62.295 64.6425 62.4028 64.6425C62.4194 64.6425 62.4567 64.6467 62.5148 64.6551C62.5812 64.6636 62.6226 64.6721 62.6392 64.6805C62.7471 64.9089 62.8425 65.1119 62.9254 65.2896C63.0084 65.4672 63.0789 65.6364 63.1369 65.7972C63.1949 65.9494 63.2364 66.1059 63.2613 66.2666C63.2945 66.4273 63.3111 66.605 63.3111 66.7995C63.2033 67.0787 63.0829 67.3663 62.9502 67.6624C62.8175 67.95 62.7056 68.2249 62.6144 68.4871C62.5231 68.7493 62.465 68.9862 62.4402 69.1976C62.4235 69.4092 62.4692 69.5783 62.577 69.7052C62.6931 69.8236 62.8839 69.887 63.1493 69.8955C63.423 69.904 63.8088 69.8321 64.3064 69.6798C64.4391 69.7475 64.4516 69.8321 64.3437 69.9336C64.2359 70.0266 64.07 70.1154 63.846 70.2001C63.6304 70.2847 63.3899 70.3565 63.1244 70.4158C62.8673 70.4665 62.6516 70.4792 62.4775 70.4539C62.3199 70.4539 62.1872 70.4285 62.0794 70.3777C61.9798 70.3185 61.8969 70.2423 61.8305 70.1493C61.7725 70.0563 61.7268 69.9505 61.6936 69.8321C61.6688 69.7137 61.6564 69.591 61.6564 69.4641Z" fill="#EFC4D8"/>
<path d="M64.4184 72.3698C64.4184 72.2514 64.435 72.1541 64.4682 72.078C64.5014 72.0018 64.5843 71.9638 64.717 71.9638H64.804C64.8455 71.9638 64.8745 71.968 64.8912 71.9764C64.8829 72.2387 64.9285 72.4333 65.028 72.5601C65.1276 72.6954 65.2976 72.7632 65.5381 72.7632C65.7455 72.7632 65.9155 72.7462 66.0482 72.7124C66.181 72.687 66.2846 72.6363 66.3592 72.5601C66.4339 72.484 66.4837 72.374 66.5086 72.2302C66.5418 72.0948 66.5583 71.913 66.5583 71.6846C66.5583 71.5493 66.5169 71.4478 66.4339 71.3801C66.3592 71.3124 66.2722 71.2532 66.1726 71.2024C66.0814 71.1517 65.9943 71.1009 65.9114 71.0502C65.8367 70.9994 65.7994 70.9233 65.7994 70.8218C65.7911 70.6696 65.7911 70.5342 65.7994 70.4158C65.6003 70.4412 65.4012 70.4539 65.2022 70.4539C65.0529 70.4539 64.8953 70.4285 64.7294 70.3777C64.5636 70.3185 64.4101 70.2381 64.2691 70.1366C64.1281 70.0351 64.0078 69.9124 63.9083 69.7686C63.817 69.6249 63.7714 69.4641 63.7714 69.2865C63.7714 68.9058 63.8253 68.5379 63.9332 68.1826C64.041 67.8188 64.1903 67.4762 64.381 67.1548C64.5718 66.8334 64.8 66.5373 65.0654 66.2666C65.339 65.9959 65.6335 65.7591 65.9487 65.5561V65.5434C66.0731 65.4672 66.2141 65.3953 66.3717 65.3277C66.5376 65.2515 66.691 65.2093 66.832 65.2008C66.9731 65.1839 67.0891 65.2177 67.1804 65.3023C67.28 65.3784 67.3297 65.5265 67.3297 65.7464C67.3297 65.8479 67.3214 65.9832 67.3048 66.1525C67.2882 66.3131 67.2426 66.4273 67.168 66.495C67.1016 66.5373 67.0146 66.5754 66.9067 66.6092C66.8569 66.6261 66.8072 66.6388 66.7574 66.6472V65.8479C66.5666 65.8733 66.3468 65.9959 66.098 66.2159C65.8492 66.4273 65.6086 66.6896 65.3764 67.0025C65.1524 67.3071 64.9617 67.6412 64.804 68.005C64.6465 68.3603 64.5677 68.6901 64.5677 68.9946C64.5677 69.24 64.6299 69.4134 64.7543 69.5149C64.8787 69.6079 65.0571 69.6544 65.2893 69.6544C65.5381 69.6544 65.7787 69.6249 66.0109 69.5656C66.2515 69.498 66.4879 69.4303 66.7201 69.3626C66.9606 69.2865 67.197 69.2188 67.4292 69.1596C67.6698 69.0919 67.9144 69.0581 68.1633 69.0581C68.1633 69.1766 68.1467 69.2781 68.1135 69.3626C68.0803 69.4387 68.0306 69.5234 67.9642 69.6164C67.5329 69.8279 67.0892 70.0224 66.633 70.2001C66.5418 70.2339 66.4547 70.2635 66.3717 70.2889C66.3717 70.4327 66.3427 70.6103 66.2846 70.8218C66.3759 70.8895 66.4712 70.9487 66.5708 70.9994C66.6703 71.0586 66.7574 71.1179 66.832 71.177C66.915 71.2363 66.9814 71.3039 67.0311 71.3801C67.0892 71.4562 67.1182 71.5493 67.1182 71.6592C67.1182 72.2514 67.0021 72.6743 66.7698 72.9281C66.5376 73.1819 66.1478 73.3087 65.6003 73.3087C65.2852 73.3087 65.0073 73.2326 64.7668 73.0804C64.5345 72.9281 64.4184 72.6912 64.4184 72.3698Z" fill="#EFC4D8"/>
<path d="M68.1633 69.6164C68.238 69.1342 68.3789 68.6901 68.5863 68.2841C68.7937 67.8781 69.0301 67.527 69.2955 67.2309C69.5692 66.9264 69.8637 66.6769 70.1788 66.4823C70.4941 66.2877 70.8009 66.1651 71.0995 66.1144C71.3981 66.0551 71.6719 66.0678 71.9206 66.1524C72.1778 66.237 72.3851 66.4062 72.5428 66.6599C72.5428 66.8545 72.4971 67.0406 72.4059 67.2182C72.3229 67.3959 72.2276 67.5735 72.1197 67.7512C72.0202 67.9288 71.9248 68.1107 71.8336 68.2968C71.7507 68.4829 71.7092 68.6817 71.7092 68.8931C71.7092 69.1131 71.7548 69.2907 71.8461 69.426C71.9456 69.5529 72.1156 69.6164 72.3561 69.6164C72.5552 69.6164 72.746 69.5868 72.9285 69.5276C73.1192 69.4683 73.31 69.4387 73.5008 69.4387C73.534 69.4387 73.5879 69.443 73.6625 69.4514C73.7454 69.4514 73.7994 69.4514 73.8243 69.4514C73.7247 69.5952 73.5962 69.7179 73.4386 69.8194C73.2809 69.9209 73.1151 70.0097 72.9409 70.0859C72.7667 70.1535 72.5842 70.2043 72.3935 70.2381C72.211 70.2719 72.041 70.2889 71.8834 70.2889C71.7341 70.2889 71.6013 70.255 71.4853 70.1874C71.3691 70.1197 71.2696 70.0309 71.1867 69.9209C71.1037 69.8109 71.0373 69.6883 70.9876 69.5529C70.9461 69.4092 70.9254 69.2696 70.9254 69.1342C70.8009 69.278 70.664 69.4303 70.5148 69.591C70.3738 69.7433 70.2203 69.8828 70.0545 70.0097C69.8969 70.1366 69.7227 70.2423 69.5319 70.327C69.3494 70.4115 69.1586 70.4539 68.9596 70.4539C68.7439 70.4539 68.5573 70.3734 68.3997 70.2128C68.2421 70.0436 68.1633 69.8448 68.1633 69.6164ZM68.9844 69.223C68.9844 69.2907 68.9844 69.3668 68.9844 69.4514C68.9928 69.536 69.0466 69.591 69.1462 69.6164C69.3536 69.5656 69.59 69.4557 69.8554 69.2865C70.1208 69.1088 70.3696 68.9058 70.6018 68.6774C70.8341 68.4406 71.029 68.191 71.1867 67.9288C71.3442 67.6581 71.423 67.4001 71.423 67.1548C71.423 67.1379 71.4189 67.1125 71.4106 67.0787C71.4106 67.0364 71.4106 67.0068 71.4106 66.9898C71.1285 66.9898 70.8424 67.0491 70.5521 67.1675C70.2618 67.2859 70.0005 67.4508 69.7682 67.6624C69.536 67.8654 69.3452 68.1022 69.196 68.3729C69.055 68.6436 68.9844 68.927 68.9844 69.223Z" fill="#EFC4D8"/>
<path d="M73.4635 69.0327C73.4635 68.872 73.4842 68.7324 73.5257 68.614C73.5754 68.4955 73.6957 68.4364 73.8865 68.4364C73.9031 68.4364 73.9403 68.4406 73.9985 68.4491C74.0648 68.4491 74.1104 68.4533 74.1353 68.4618C74.127 68.8593 74.1892 69.1596 74.3219 69.3626C74.4546 69.5572 74.7034 69.6544 75.0684 69.6544C75.367 69.6544 75.6614 69.608 75.9516 69.5149C76.2419 69.4218 76.5034 69.2865 76.7354 69.1088C76.9765 68.9228 77.1669 68.6986 77.3082 68.4364C77.4571 68.1741 77.5319 67.8781 77.5319 67.5482C77.5319 67.3451 77.4617 67.2014 77.3203 67.1167C77.1873 67.0322 77.0384 66.9645 76.8722 66.9137C76.7066 66.863 76.5532 66.808 76.4119 66.7488C76.2796 66.6811 76.2131 66.5669 76.2131 66.4062C76.2131 66.2116 76.3295 66.0256 76.5615 65.8479C76.7936 65.6703 77.0671 65.5138 77.3823 65.3784C77.6975 65.2346 78.0088 65.1246 78.3157 65.0485C78.6308 64.964 78.8712 64.9216 79.0374 64.9216C79.0374 65.167 78.9838 65.3404 78.8757 65.4419C78.7759 65.5434 78.652 65.6237 78.5023 65.683C78.3527 65.7422 78.1993 65.8014 78.0421 65.8606C77.8924 65.9114 77.7685 66.0129 77.6687 66.1651C77.8017 66.275 77.9091 66.3766 77.9922 66.4697C78.0836 66.5542 78.1539 66.6473 78.2038 66.7488C78.2537 66.8503 78.2869 66.9645 78.3036 67.0913C78.3202 67.2098 78.3278 67.3536 78.3278 67.5228C78.3278 67.9627 78.2325 68.3645 78.0421 68.7282C77.8592 69.0835 77.6189 69.3923 77.3203 69.6544C77.0218 69.9082 76.6817 70.1071 76.3001 70.2508C75.9184 70.3862 75.5287 70.4539 75.1306 70.4539C74.915 70.4539 74.7034 70.4285 74.4961 70.3777C74.2971 70.3185 74.1187 70.2296 73.9611 70.1113C73.8118 69.9929 73.6915 69.8448 73.6003 69.6671C73.509 69.4895 73.4635 69.2781 73.4635 69.0327Z" fill="#EFC4D8"/>
<path d="M80.2194 67.1421C80.4431 67.1167 80.6835 67.0872 80.9412 67.0533C81.2064 67.011 81.4755 66.9729 81.7498 66.9391C82.0234 66.8968 82.2932 66.8629 82.5585 66.8376C82.8321 66.8122 83.089 66.7995 83.3294 66.7995C83.3959 66.7995 83.4662 66.7995 83.541 66.7995C83.6158 66.7911 83.6861 66.7995 83.7526 66.8249C83.8274 66.8419 83.8939 66.8756 83.9514 66.9264C84.0096 66.9687 84.0511 67.0406 84.0761 67.1421C84.0262 67.2352 83.9272 67.3198 83.7775 67.3959C83.6279 67.4635 83.4503 67.5228 83.2425 67.5735C83.0354 67.6243 82.8155 67.6666 82.5834 67.7004C82.3507 67.7258 82.1353 67.7512 81.9365 67.7766C81.737 67.7934 81.5632 67.8061 81.4135 67.8146C81.273 67.8146 81.1898 67.8146 81.1649 67.8146C81.0901 67.8146 80.9986 67.8104 80.8913 67.8019C80.7832 67.785 80.6797 67.7639 80.5799 67.7385C80.4802 67.7046 80.3932 67.6666 80.3184 67.6243C80.2527 67.582 80.2194 67.5355 80.2194 67.4847V67.1421Z" fill="#EFC4D8"/>
<path d="M84.6361 69.2865C84.6361 69.2357 84.6361 69.1723 84.6361 69.0961C84.6361 69.02 84.6444 68.9482 84.661 68.8804C84.6777 68.8043 84.7026 68.7409 84.7359 68.6901C84.7691 68.6394 84.8182 68.614 84.8847 68.614C84.9512 68.614 85.0215 68.6775 85.0964 68.8043C85.1795 68.9228 85.283 69.0581 85.4077 69.2103C85.5317 69.3542 85.6851 69.4895 85.868 69.6164C86.0584 69.7348 86.295 69.794 86.5769 69.794C86.7923 69.794 87.05 69.7602 87.3485 69.6925C87.647 69.6249 87.9539 69.5318 88.269 69.4134C88.5925 69.2865 88.9077 69.1385 89.2145 68.9693C89.5296 68.7916 89.8115 68.6013 90.0609 68.3983C90.3096 68.1868 90.5084 67.9669 90.658 67.7385C90.8152 67.5016 90.8945 67.2563 90.8945 67.0025C90.5953 67.0025 90.3096 67.0364 90.036 67.104C89.7617 67.1717 89.4594 67.2055 89.1276 67.2055C89.1276 67.1294 89.1397 67.0576 89.1646 66.9898C89.1896 66.9137 89.244 66.8587 89.3263 66.8249L91.5785 65.8479L91.9141 65.5053C91.9473 65.4207 92.01 65.2769 92.1007 65.0739C92.1922 64.8709 92.2874 64.6594 92.3872 64.4394C92.4952 64.2111 92.5943 63.9954 92.6857 63.7924C92.7771 63.5894 92.8437 63.4498 92.8852 63.3736C92.8852 63.3652 92.9011 63.3356 92.9343 63.2848C92.9676 63.2341 93.0008 63.1833 93.0341 63.1326C93.0757 63.0733 93.1089 63.0225 93.1339 62.9803C93.1671 62.9295 93.1875 62.8957 93.1958 62.8788C93.1958 62.8111 93.1921 62.7519 93.1837 62.7011C93.1754 62.6504 93.1255 62.5954 93.0341 62.5362C92.2458 62.8322 91.4871 63.1072 90.757 63.361C90.0277 63.6062 89.2848 63.8812 88.5305 64.1857C88.5222 64.1857 88.5056 64.1899 88.4806 64.1984C88.464 64.1984 88.4474 64.1984 88.4308 64.1984C88.3643 64.1984 88.3061 64.173 88.2562 64.1223C88.2154 64.0715 88.1942 64.0123 88.1942 63.9447C88.1942 63.86 88.331 63.7331 88.6046 63.564C88.8872 63.3863 89.2394 63.2002 89.6627 63.0057C90.0851 62.8026 90.5499 62.5954 91.0563 62.3839C91.5702 62.1725 92.0599 61.9821 92.524 61.813C92.9888 61.6353 93.3991 61.4915 93.7559 61.3816C94.1126 61.2716 94.3529 61.2166 94.4776 61.2166C94.6514 61.2166 94.8049 61.2589 94.9379 61.3435C95.0701 61.428 95.1366 61.5803 95.1366 61.8003C95.1366 61.8679 95.1162 61.9229 95.0747 61.9652C95.0414 62.0075 94.9961 62.0456 94.9379 62.0794C94.888 62.1048 94.8343 62.1301 94.7761 62.1555C94.7263 62.1725 94.6847 62.1936 94.6514 62.2189C94.6015 62.2613 94.5358 62.3247 94.4527 62.4093C94.3695 62.4939 94.2826 62.5785 94.1912 62.6631C94.108 62.7477 94.034 62.828 93.9675 62.9041C93.901 62.9718 93.8639 63.0142 93.8556 63.031C93.7808 63.1579 93.6856 63.3356 93.5692 63.564C93.4611 63.7839 93.3576 64.0081 93.2578 64.2364C93.1588 64.4648 93.0711 64.6721 92.9971 64.8582C92.9223 65.0358 92.8852 65.1415 92.8852 65.1754V65.4165C92.9177 65.4165 92.9759 65.408 93.059 65.3911C93.1505 65.3657 93.2412 65.3488 93.3326 65.3404C93.4241 65.3319 93.5027 65.3445 93.5692 65.3784C93.644 65.4123 93.681 65.4841 93.681 65.5941C93.681 65.6956 93.6274 65.7802 93.5193 65.8479C93.4777 65.8648 93.4029 65.8987 93.2956 65.9494C93.1958 65.9917 93.084 66.0383 92.9593 66.089C92.8437 66.1398 92.731 66.1905 92.6237 66.2413C92.5157 66.2835 92.4408 66.3131 92.3993 66.3301C92.035 66.9391 91.6488 67.4974 91.2422 68.005C90.8447 68.5125 90.401 68.9482 89.9113 69.3118C89.4299 69.6671 88.891 69.9463 88.294 70.1493C87.7052 70.3523 87.0455 70.4539 86.3154 70.4539C86.1582 70.4539 85.9798 70.4327 85.7803 70.3904C85.5899 70.3481 85.4077 70.2804 85.2331 70.1874C85.0676 70.0859 84.9263 69.9632 84.8099 69.8194C84.6943 69.6671 84.6361 69.4895 84.6361 69.2865Z" fill="#EFC4D8"/>
<path d="M93.4324 69.7813C93.2911 69.4599 93.2291 69.1469 93.2457 68.8424C93.2623 68.5294 93.3288 68.2376 93.4445 67.9669C93.5692 67.6877 93.7264 67.4382 93.9176 67.2182C94.1163 66.9898 94.328 66.7953 94.5517 66.6346C94.7761 66.4654 94.9998 66.3385 95.2235 66.254C95.4563 66.1693 95.6596 66.1355 95.8334 66.1525C96.008 66.1609 96.1448 66.2243 96.2438 66.3428C96.3436 66.4612 96.3768 66.643 96.3436 66.8883C96.3436 67.2182 96.24 67.5059 96.0322 67.7512C95.8334 67.9965 95.6097 68.2164 95.3611 68.411C95.12 68.6055 94.8963 68.7832 94.6892 68.9439C94.4897 69.0962 94.3899 69.24 94.3899 69.3753C94.3899 69.4514 94.4315 69.5107 94.5146 69.5529C94.6061 69.5953 94.7096 69.6291 94.826 69.6544C94.9416 69.6714 95.058 69.6841 95.1744 69.6925C95.29 69.701 95.3732 69.7095 95.4231 69.7179C96.2022 69.5487 96.7872 69.4472 97.1772 69.4134C97.5671 69.3711 97.812 69.3753 97.911 69.426C98.0108 69.4684 97.9904 69.5402 97.849 69.6418C97.716 69.7348 97.509 69.8363 97.2271 69.9463C96.9452 70.0478 96.6172 70.1408 96.2438 70.2255C95.8705 70.3101 95.5017 70.3608 95.1366 70.3777C94.7716 70.3862 94.4315 70.3481 94.1163 70.2635C93.8095 70.1789 93.5813 70.0182 93.4324 69.7813ZM95.6097 66.8883C95.4435 66.8883 95.2863 66.9349 95.1366 67.0279C94.9877 67.121 94.8509 67.2394 94.7262 67.3832C94.6099 67.5186 94.5109 67.6708 94.4277 67.84C94.3446 68.0008 94.2826 68.153 94.241 68.2968C94.2577 68.3052 94.2698 68.3095 94.2781 68.3095H94.3159C94.4315 68.3095 94.5645 68.2587 94.7134 68.1572C94.863 68.0557 95.0044 67.933 95.1366 67.7892C95.2696 67.637 95.3815 67.4805 95.4729 67.3198C95.5636 67.1591 95.6097 67.0152 95.6097 66.8883Z" fill="#EFC4D8"/>
<path d="M97.5626 69.6164C97.5626 69.498 97.5755 69.3965 97.6004 69.3118C97.6253 69.2188 97.6707 69.1004 97.7372 68.9566C97.7954 68.872 97.8989 68.7113 98.0478 68.4745C98.2058 68.2376 98.3675 67.988 98.533 67.7258C98.7076 67.4636 98.8693 67.2182 99.0182 66.9898C99.1762 66.753 99.2842 66.5881 99.3417 66.495C99.4165 66.3851 99.4747 66.3258 99.5163 66.3174C99.5578 66.3089 99.6364 66.3047 99.7528 66.3047C99.8276 66.3047 99.9062 66.3089 99.9894 66.3174C100.08 66.3258 100.138 66.3851 100.163 66.495C100.047 66.7826 99.8896 67.0576 99.6901 67.3198C99.4996 67.5735 99.3092 67.8273 99.118 68.0811C98.9358 68.3349 98.7741 68.5971 98.6328 68.8678C98.4922 69.13 98.4212 69.4134 98.4212 69.7179C98.4544 69.7179 98.5043 69.7221 98.5708 69.7306C98.6456 69.7391 98.7242 69.7475 98.8074 69.756C98.8897 69.7644 98.9646 69.7729 99.0311 69.7813C99.1059 69.7898 99.1595 69.7898 99.1928 69.7813C99.2427 69.7729 99.3258 69.756 99.4414 69.7306C99.5661 69.6968 99.6946 69.6629 99.8276 69.6291C99.9682 69.5953 100.101 69.5614 100.225 69.5276C100.35 69.4938 100.437 69.4684 100.487 69.4514C100.487 69.4684 100.487 69.498 100.487 69.5402C100.495 69.5741 100.5 69.5995 100.5 69.6164C100.5 69.7856 100.42 69.9251 100.263 70.0351C100.113 70.1451 99.935 70.2339 99.7279 70.3016C99.5284 70.3608 99.3213 70.4031 99.1059 70.4285C98.898 70.4454 98.7363 70.4539 98.6207 70.4539C98.496 70.4539 98.3675 70.4412 98.2345 70.4158C98.1105 70.3819 97.9987 70.3312 97.8989 70.2635C97.7992 70.1958 97.716 70.1113 97.6503 70.0097C97.5921 69.8997 97.5626 69.7686 97.5626 69.6164ZM101.183 62.1809C101.292 62.1809 101.391 62.1852 101.482 62.1936C101.573 62.2021 101.652 62.2232 101.719 62.257C101.785 62.2909 101.839 62.3416 101.88 62.4093C101.922 62.477 101.942 62.57 101.942 62.6884C101.942 62.7392 101.942 62.7942 101.942 62.8534C101.942 62.9126 101.934 62.9718 101.917 63.031C101.909 63.0818 101.889 63.1284 101.855 63.1706C101.822 63.2045 101.768 63.2214 101.694 63.2214C101.577 63.2214 101.482 63.1791 101.407 63.0945C101.341 63.0099 101.292 62.9126 101.258 62.8026C101.225 62.6842 101.204 62.5658 101.196 62.4473C101.187 62.3289 101.183 62.2401 101.183 62.1809Z" fill="#EFC4D8"/>
<path d="M103.336 69.4641C103.336 69.2103 103.386 68.9777 103.485 68.7663C103.593 68.5463 103.709 68.3391 103.833 68.1445C103.958 67.95 104.07 67.7554 104.169 67.5608C104.278 67.3663 104.331 67.1591 104.331 66.9391C104.331 66.8883 104.327 66.8292 104.318 66.7614C104.318 66.6853 104.31 66.6135 104.294 66.5458C104.286 66.4781 104.261 66.4231 104.219 66.3808C104.186 66.3301 104.141 66.3047 104.083 66.3047C104.074 66.3047 104.058 66.3089 104.033 66.3174C104.016 66.3174 104.008 66.3216 104.008 66.3301C103.891 66.4908 103.751 66.6726 103.585 66.8756C103.427 67.0702 103.257 67.2648 103.074 67.4593C102.892 67.6539 102.714 67.84 102.539 68.0177C102.365 68.1953 102.208 68.3433 102.067 68.4618C101.967 68.5548 101.83 68.6817 101.657 68.8424C101.49 69.0031 101.32 69.1639 101.146 69.3245C100.98 69.4768 100.831 69.6122 100.698 69.7306C100.574 69.849 100.503 69.9082 100.487 69.9082L99.9145 69.4134C99.9894 69.4134 100.063 69.3965 100.138 69.3626C100.205 69.3288 100.271 69.2908 100.337 69.2484C100.835 68.9101 101.283 68.5209 101.681 68.0811C102.087 67.6412 102.486 67.1675 102.876 66.6599C102.892 66.6346 102.934 66.5627 103 66.4443C103.074 66.3174 103.153 66.1778 103.236 66.0256C103.319 65.8648 103.402 65.7083 103.485 65.5561C103.568 65.3953 103.631 65.2684 103.671 65.1754C103.721 65.0654 103.751 64.9766 103.759 64.9089C103.776 64.8413 103.788 64.7905 103.796 64.7567C103.813 64.7144 103.838 64.6848 103.871 64.6678C103.904 64.6509 103.974 64.6425 104.083 64.6425C104.099 64.6425 104.136 64.6467 104.194 64.6551C104.261 64.6636 104.302 64.6721 104.318 64.6805C104.426 64.9089 104.522 65.1119 104.605 65.2896C104.688 65.4672 104.758 65.6364 104.816 65.7972C104.875 65.9494 104.916 66.1059 104.941 66.2666C104.974 66.4273 104.99 66.605 104.99 66.7995C104.883 67.0787 104.763 67.3663 104.63 67.6624C104.497 67.95 104.385 68.2249 104.294 68.4871C104.203 68.7493 104.145 68.9862 104.12 69.1976C104.103 69.4092 104.148 69.5783 104.256 69.7052C104.373 69.8236 104.563 69.887 104.828 69.8955C105.103 69.904 105.488 69.8321 105.986 69.6798C106.119 69.7475 106.131 69.8321 106.023 69.9336C105.915 70.0266 105.75 70.1154 105.525 70.2001C105.31 70.2847 105.07 70.3565 104.804 70.4158C104.547 70.4665 104.331 70.4792 104.157 70.4539C103.999 70.4539 103.866 70.4285 103.759 70.3777C103.659 70.3185 103.576 70.2423 103.51 70.1493C103.452 70.0563 103.406 69.9505 103.373 69.8321C103.348 69.7137 103.336 69.591 103.336 69.4641Z" fill="#EFC4D8"/>
<path d="M105.513 69.6164C105.588 69.1342 105.729 68.6901 105.936 68.2841C106.144 67.8781 106.38 67.527 106.645 67.2309C106.919 66.9264 107.214 66.6769 107.529 66.4823C107.844 66.2877 108.151 66.1651 108.449 66.1144C108.748 66.0551 109.021 66.0678 109.271 66.1524C109.528 66.237 109.735 66.4062 109.893 66.6599C109.893 66.8545 109.847 67.0406 109.756 67.2182C109.673 67.3959 109.578 67.5735 109.47 67.7512C109.37 67.9288 109.275 68.1107 109.183 68.2968C109.101 68.4829 109.059 68.6817 109.059 68.8931C109.059 69.1131 109.105 69.2907 109.196 69.426C109.295 69.5529 109.465 69.6164 109.706 69.6164C109.905 69.6164 110.096 69.5868 110.278 69.5276C110.469 69.4683 110.66 69.4387 110.85 69.4387C110.884 69.4387 110.937 69.443 111.012 69.4514C111.095 69.4514 111.149 69.4514 111.174 69.4514C111.075 69.5952 110.946 69.7179 110.788 69.8194C110.63 69.9209 110.465 70.0097 110.29 70.0859C110.117 70.1535 109.934 70.2043 109.743 70.2381C109.561 70.2719 109.391 70.2889 109.233 70.2889C109.084 70.2889 108.951 70.255 108.835 70.1874C108.719 70.1197 108.619 70.0309 108.536 69.9209C108.453 69.8109 108.387 69.6883 108.337 69.5529C108.296 69.4092 108.276 69.2696 108.276 69.1342C108.151 69.278 108.014 69.4303 107.864 69.591C107.724 69.7433 107.57 69.8828 107.404 70.0097C107.247 70.1366 107.072 70.2423 106.882 70.327C106.699 70.4115 106.509 70.4539 106.309 70.4539C106.094 70.4539 105.907 70.3734 105.75 70.2128C105.592 70.0436 105.513 69.8448 105.513 69.6164ZM106.334 69.223C106.334 69.2907 106.334 69.3668 106.334 69.4514C106.342 69.536 106.397 69.591 106.496 69.6164C106.704 69.5656 106.94 69.4557 107.205 69.2865C107.471 69.1088 107.719 68.9058 107.951 68.6774C108.184 68.4406 108.379 68.191 108.536 67.9288C108.694 67.6581 108.773 67.4001 108.773 67.1548C108.773 67.1379 108.769 67.1125 108.761 67.0787C108.761 67.0364 108.761 67.0068 108.761 66.9898C108.478 66.9898 108.192 67.0491 107.902 67.1675C107.612 67.2859 107.35 67.4508 107.118 67.6624C106.886 67.8654 106.695 68.1022 106.546 68.3729C106.405 68.6436 106.334 68.927 106.334 69.223Z" fill="#EFC4D8"/>
<path d="M110.813 69.0327C110.813 68.872 110.834 68.7324 110.875 68.614C110.925 68.4955 111.045 68.4364 111.237 68.4364C111.253 68.4364 111.29 68.4406 111.348 68.4491C111.415 68.4491 111.46 68.4533 111.485 68.4618C111.477 68.8593 111.539 69.1596 111.672 69.3626C111.804 69.5572 112.054 69.6544 112.418 69.6544C112.717 69.6544 113.011 69.608 113.301 69.5149C113.592 69.4218 113.853 69.2865 114.085 69.1088C114.326 68.9228 114.517 68.6986 114.658 68.4364C114.807 68.1741 114.882 67.8781 114.882 67.5482C114.882 67.3451 114.811 67.2014 114.67 67.1167C114.538 67.0322 114.388 66.9645 114.223 66.9137C114.056 66.863 113.903 66.808 113.762 66.7488C113.629 66.6811 113.563 66.5669 113.563 66.4062C113.563 66.2116 113.679 66.0256 113.911 65.8479C114.143 65.6703 114.417 65.5138 114.733 65.3784C115.048 65.2346 115.359 65.1246 115.665 65.0485C115.981 64.964 116.222 64.9216 116.387 64.9216C116.387 65.167 116.333 65.3404 116.225 65.4419C116.126 65.5434 116.002 65.6237 115.852 65.683C115.703 65.7422 115.55 65.8014 115.392 65.8606C115.242 65.9114 115.118 66.0129 115.018 66.1651C115.151 66.275 115.259 66.3766 115.342 66.4697C115.433 66.5542 115.504 66.6473 115.554 66.7488C115.603 66.8503 115.637 66.9645 115.653 67.0913C115.67 67.2098 115.678 67.3536 115.678 67.5228C115.678 67.9627 115.582 68.3645 115.392 68.7282C115.21 69.0835 114.969 69.3923 114.67 69.6544C114.371 69.9082 114.031 70.1071 113.65 70.2508C113.268 70.3862 112.879 70.4539 112.481 70.4539C112.264 70.4539 112.054 70.4285 111.846 70.3777C111.647 70.3185 111.469 70.2296 111.311 70.1113C111.162 69.9929 111.042 69.8448 110.95 69.6671C110.859 69.4895 110.813 69.2781 110.813 69.0327Z" fill="#EFC4D8"/>
<defs>
<filter id="filter0_d_3_58" x="1.69466" y="1.38141" width="160.611" height="161.237" filterUnits="userSpaceOnUse" color-interpolation-filters="sRGB">
<feFlood flood-opacity="0" result="BackgroundImageFix"/>
<feColorMatrix in="SourceAlpha" type="matrix" values="0 0 0 0 0 0 0 0 0 0 0 0 0 0 0 0 0 0 127 0" result="hardAlpha"/>
<feOffset/>
<feGaussianBlur stdDeviation="1.5"/>
<feComposite in2="hardAlpha" operator="out"/>
<feColorMatrix type="matrix" values="0 0 0 0 0 0 0 0 0 0 0 0 0 0 0 0 0 0 0.25 0"/>
<feBlend mode="normal" in2="BackgroundImageFix" result="effect1_dropShadow_3_58"/>
<feBlend mode="normal" in="SourceGraphic" in2="effect1_dropShadow_3_58" result="shape"/>
</filter>
</defs>
</svg>
